<svg xmlns="http://www.w3.org/2000/svg" width="100" height="100" viewBox="0 0 100 100">
  <path id="party_1" data-name="party 1" class="cls-1" d="M50.453,26.468v0.183l-0.274.183-0.823.913-0.183.091-0.091.457H48.99v4.292H48.9l-0.091.548a3.856,3.856,0,0,0-.457.457,0.82,0.82,0,0,0-.366.183H47.071V33.682H46.888V33.591H46.706V33.5H46.523V33.408H46.34V33.317H46.157V33.226H45.974V33.134H45.792V33.043l-1.005-.365a2.876,2.876,0,0,0-1.462-.548v0.091H43.05l-0.091.183-0.366.091-0.091.183H42.319v0.091H42.136l-0.091.183-0.366.091-0.091.183-0.366.091L41.13,33.5l-0.365.091-0.091.183-0.366.091-0.091.183-0.548.183-0.091.183-0.366.091V34.6L38.3,34.5a1.138,1.138,0,0,0-.183-0.183V34.139H38.023a2.571,2.571,0,0,1,.274-1.553l0.457-1.918h0.091l0.091-.639h0.091l0.091-.639h0.091a1.623,1.623,0,0,0,.091-0.639l-0.548-.639H38.571l-0.457-.548-0.274-.183V27.29H37.657l-1.1-1.187a3.525,3.525,0,0,1,.274-1.187,8.3,8.3,0,0,1,.731-0.548l0.731-.091V24.185h0.366c0.431-.144,1.032-0.312,1.462-0.457h0.366l1.371-.457V23.181l0.457-.365,0.091-.365,0.183-.091,0.091-.365,0.183-.091V21.72h0.091l0.091-.365,0.183-.091,0.091-.365,0.183-.091,0.091-.365,0.183-.091,0.183-.548,0.183-.091,0.091-.365,0.183-.091V19.071h0.091V18.889l0.64-.457a5.551,5.551,0,0,1,1.1.091,0.791,0.791,0,0,0,.183.183v0.183h0.091l0.091,0.548h0.091v0.183H46.8l0.091,0.548H46.98V20.35h0.091l0.183,0.822h0.091v0.183h0.091v0.274h0.091V21.9h0.091v0.183h0.091v0.183H47.8c0.153,0.248-.083.173,0.274,0.274v0.091c0.128,0.021-.024-0.034.091-0.091h0.091V22.267h0.091l0.091-.365h0.091V21.628h0.091V21.446h0.091L48.9,20.9H48.99V20.624h0.091V20.441h0.091l0.183-.548h0.091V19.619h0.091V19.437H49.63l0.183-.548H49.9V18.615H50V18.432h0.091l0.183-.548h0.091V17.61h0.091V17.427h0.091l0.183-.548h0.091V16.606H50.91V16.423H51l0.183-.548h0.091V15.6h0.091V15.418h0.091l0.183-.548h0.091V14.6h0.091V14.414h0.091l0.183-.548h0.091V13.592h0.091V13.409h0.091l0.183-.548h0.091V12.588h0.091V12.4h0.091l0.183-.548H53.1V11.583h0.091V11.4h0.091l0.183-.548H53.56V10.578h0.091V10.4h0.091V10.213h0.091V10.031h0.091V9.757h0.091L54.2,9.209h0.091l0.091-.457h0.091A0.769,0.769,0,0,1,55.023,8.2,1.956,1.956,0,0,1,56.3,8.021V8.113L58.039,8.2h0.914V8.3h1.279V8.387h0.274V8.478h0.183V8.569a0.59,0.59,0,0,1,.457.457,0.928,0.928,0,0,1,.183.731H61.237v0.274H61.146V10.3H61.055l-0.183.548H60.78v0.183H60.689v0.274H60.6v0.183H60.506l-0.183.548H60.232l-0.274.822H59.866v0.183H59.775v0.274H59.684V13.5H59.592l-0.183.548H59.318l-0.274.822H58.953v0.183H58.861v0.274H58.77V15.51H58.678v0.183H58.587L58.4,16.24H58.313v0.274H58.221V16.7H58.13l-0.183.548H57.856v0.274H57.764V17.7H57.673l-0.183.548H57.4v0.274H57.307v0.183H57.216l-0.183.548H56.942v0.274H56.85V19.71H56.759l-0.183.548H56.485v0.274H56.393v0.183H56.3l-0.183.548H56.028v0.274H55.936V21.72H55.845l-0.183.548H55.571v0.274H55.479v0.183H55.388l-0.183.548H55.114v0.274H55.023v0.183H54.931l-0.183.548H54.657V24.55H54.566v0.183H54.474l-0.183.548H54.2v0.274H54.109a1.945,1.945,0,0,1-.731,1.1,2.184,2.184,0,0,1-1.371.183V26.742H51V26.651H50.727V26.559Zm-1.645-3.744h3.564v0.091h0.183l0.183,0.274a1.052,1.052,0,0,1,.183.822H52.829v0.274L51,26.1h1.005a2.21,2.21,0,0,0,1.1.091l0.548-.913,0.274-.822h0.091V24.276h0.091V24H54.2l0.183-.548h0.091V23.272h0.091V23h0.091l0.183-.548h0.091V22.267h0.091V21.993h0.091l0.183-.548h0.091V21.263h0.091V20.989h0.091l0.183-.548h0.091V20.258h0.091V19.984h0.091l0.183-.548H56.3V19.254h0.091V18.98h0.091l0.183-.548h0.091V18.249H56.85V17.975h0.091l0.183-.548h0.091V17.245h0.091V16.971H57.4V16.788H57.49l0.274-.822h0.091l0.183-.548H58.13V15.236h0.091V15.053h0.091L58.4,14.6H58.5l0.183-.548H58.77V13.775h0.091l0.183-.548h0.091V13.044h0.091V12.77h0.091l0.183-.548h0.091V12.04h0.091V11.766h0.091l0.183-.548h0.091V11.035h0.091V10.761h0.091V10.578h0.091V10.4h0.091V10.213h0.091a1.547,1.547,0,0,0,.091-1.1l-0.366-.091V8.935H58.953V8.843H57.582a6.914,6.914,0,0,0-2.468-.091ZM38.663,33.956a2.3,2.3,0,0,0,1.279-.639l0.366-.091,0.091-.183,0.366-.091,0.091-.183,0.365-.091,0.091-.183,0.366-.091,0.091-.183,0.548-.183,0.091-.183,0.822-.274V31.491a3.04,3.04,0,0,1,1.554.365v0.091l0.366,0.091V32.13l0.365,0.091v0.091L45.974,32.4V32.5l0.548,0.183v0.091h0.183v0.091h0.183v0.091a1.762,1.762,0,0,0,.914.183,2.8,2.8,0,0,0,.366-0.365,2.3,2.3,0,0,0,.183-1.37,16.1,16.1,0,0,1,.091-3.561h0.091V27.655l0.183-.091V27.381l1.1-1V26.285L50,26.194V26.012l0.823-.731,0.274-.365h0.183l0.914-1V23.455H48.442a9.584,9.584,0,0,0-.914-0.365l-0.183-.274H47.254V22.633l-0.183-.091-0.091-.548H46.888V21.811H46.8l-0.183-.822H46.523V20.806H46.431l-0.091-.548H46.249V20.076H46.157V19.8a2.312,2.312,0,0,1-.274-0.73,3.127,3.127,0,0,0-.731.091l-0.091.274H44.969v0.183l-0.183.091-0.091.365-0.183.091-0.091.365-0.183.091-0.091.365H44.055v0.183l-0.183.091-0.091.365L43.6,21.72l-0.183.548-0.183.091-0.091.365-0.183.091V23H42.867v0.183l-0.274.183-0.091.274H42.319l-0.091.183H42.044v0.091L41.679,24v0.091H41.313v0.091H40.948v0.091H40.582v0.091H40.216v0.091H39.759l-2.193.639a1.8,1.8,0,0,0-.366.822l0.548,0.457,0.091,0.183h0.183l0.366,0.457,0.366,0.274v0.091h0.183l0.914,1L39.942,29.3H39.851v0.274H39.759l-0.091.639H39.577v0.274H39.485V30.76H39.394L39.3,31.4H39.211v0.365H39.12v0.274H39.028V32.4H38.937A4.311,4.311,0,0,0,38.663,33.956Zm24.86,49.769c0.2,2,.512,4.178-0.183,5.936v0.274H63.248v0.274H63.157v0.183H63.065v0.183l-0.183.091v0.183l-0.366.274-0.274.365H62.06v0.091l-0.274.091-0.091.183a8.234,8.234,0,0,1-2.376.091H58.5V91.853H58.221V91.762H46.888v0.091H46.614v0.091H35.829V91.853H35.555V91.762H27.238v0.091H26.964v0.091H17.459V91.853H17.185V91.762H9.507V91.671H9.142V91.579H8.868V91.488l-0.548-.183V91.214H8.137l-0.091-.183H7.862L7.5,90.575l-0.183-.091V90.3L7.04,90.118l-0.091-.365A3.179,3.179,0,0,1,6.674,87.1V86.739H6.766l0.091-.365H6.948l0.091-.365,0.183-.091V85.735l0.183-.091V85.461l0.274-.183V85.1L7.862,85V84.822l0.274-.183V84.456l0.183-.091V84.182L8.594,84V83.817l0.183-.091V83.543l0.274-.183V83.178l0.183-.091V82.9l0.274-.183V82.539H9.6l0.091-.274,0.183-.091V81.991l0.274-.183V81.625l0.183-.091V81.351l0.274-.183V80.986l0.183-.091V80.712l0.274-.183V80.347l0.183-.091,0.091-.457,0.183-.091V79.434H11.61V79.251l0.274-.183V78.886l0.183-.091V78.612l0.274-.183V78.246l0.183-.091V77.973L12.8,77.79V77.607l0.183-.091V77.333l0.274-.183V76.968l0.183-.091V76.694l0.274-.183V76.329l0.183-.091V76.055l0.274-.183V75.69l0.183-.091V75.416l0.274-.183V75.05l0.183-.091V74.776l0.274-.183V74.411l0.183-.091V74.137l0.274-.183V73.772l0.183-.091V73.5L16,73.315V73.133l0.183-.091V72.859l0.274-.183c0.251-.359.149-0.657,0.731-0.73l0.091-.274h0.091V71.489L17.55,71.4V71.215l0.274-.183V70.85l0.183-.091V70.576l0.274-.183V70.21l0.183-.091V69.936l0.274-.183V69.571l0.183-.091V69.3l0.274-.183V68.932l0.183-.091V68.658l0.274-.183V68.293l0.183-.091V68.019l0.274-.183V67.653l0.183-.091V67.379l0.274-.183V67.014h0.091l0.091-.274,0.183-.091V66.466l0.274-.183V66.1l0.183-.091V65.827l0.274-.183V65.462l0.183-.091,0.091-.457,0.183-.091V64.64l0.183-.091V64.366l0.274-.183V64l0.183-.091V63.727l0.274-.183V63.361h0.091l0.091-.274L23.4,63V62.813l0.274-.183V62.448l0.183-.091V62.174l0.274-.183V61.809h0.091l0.091-.274,0.183-.091V61.261l0.274-.183V60.9l0.183-.091V60.622l0.274-.183V60.256h0.091l0.091-.274,0.183-.091V59.709l0.274-.183V59.343h0.091l0.091-.274,0.183-.091V58.8l0.274-.183V58.43l0.183-.091V58.156l0.274-.183V57.791h0.091l0.091-.274,0.183-.091V57.243L27.6,57.06V56.878l0.183-.091a1.349,1.349,0,0,1,.914-0.913,0.6,0.6,0,0,1,.091-0.365h0.091V55.325l0.183-.091V55.051l0.274-.183V54.686l0.183-.091V54.412l0.274-.183V54.047l0.183-.091V53.773l0.274-.183V53.407l0.183-.091V53.134l0.274-.183V52.768l0.183-.091V52.494l0.274-.183V52.129l0.183-.091V51.855l0.274-.183V51.49h0.091l0.091-.274,0.183-.091V50.942l0.274-.183V50.577l0.183-.091V50.3l0.274-.183V49.937l0.183-.091V49.663l0.274-.183V49.3l0.183-.091V49.024l0.274-.183V48.659l0.183-.091V48.385l0.274-.183V48.02l0.183-.091V47.746l0.274-.183V47.38l0.183-.091,0.091-.457L35.1,46.65V46.467l0.183-.091,0.183-.822h0.091V45.28h0.091l0.183-.548,0.183-.091V44.458L36.561,44l0.091-.183h0.274V43.728l0.365-.091V43.545l0.548-.091V43.362a2.159,2.159,0,0,1,1.005.091H39.3l1.737,0.73v0.091h0.183l0.091,0.183H41.5l0.091,0.183H41.77l0.091,0.183h0.183l0.091,0.183h0.183L42.5,45.28h0.183l0.366,0.457h0.183l0.457,0.548h0.183L44.6,47.106,46.34,48.75v0.183l0.731,0.639v0.183l0.548,0.457v0.183l0.457,0.365v0.183l0.366,0.274V51.4l0.274,0.183v0.183h0.091l0.183,0.274h0.091l0.457-1.278H49.63V50.485h0.091l0.091-.457H49.9V49.846H50V49.572h0.091l0.091-.365H50.27l0.274-.913h0.091V48.111h0.091V47.837h0.091l0.091-.457H51V47.2h0.091V46.924h0.091l0.091-.365h0.091l0.274-.913h0.091V45.463h0.091V45.189h0.091V45.006h0.091V44.732H52.1l0.091-.365h0.091L52.738,43l0.183-.091V42.723h0.091l0.274-.365h0.183V42.266a1.185,1.185,0,0,0,.274-0.183l3.747-.548,2.1-.183V41.262a2.919,2.919,0,0,1,1.005-.183l0.731-.913,0.274-.183V39.8l0.548-.457V39.162L62.7,38.7V38.522l0.64-.548V37.792l0.274-.183,0.183-.274h0.091V37.153l0.548-.457V36.513l0.274-.183,0.183-.274h0.091V35.874l0.548-.457V35.235l0.548-.457V34.6l0.548-.457V33.956l0.64-.548V33.226l0.548-.457V32.587l0.548-.457V31.947l0.274-.183,0.183-.274h0.091V31.308l0.548-.457V30.669l0.548-.457V30.03l0.548-.457V29.39l0.64-.548a2,2,0,0,1,1.828-1.187v0.091l0.548,0.091v0.091H73.85v0.091h0.274v0.091h0.183V28.2h0.274v0.091h0.274v0.091H75.13v0.091h0.183v0.091h0.274V28.66l0.548,0.091v0.091h0.183v0.091l0.823,0.183v0.091h0.183V29.3l0.823,0.183v0.091h0.183v0.091H78.6a1.889,1.889,0,0,1,1.28,1,1.747,1.747,0,0,1,.183,1.187H79.974V32.13l-0.274.183V32.5l-0.548.457v0.183l-0.183.091v0.091l-0.366.274v0.183l-0.64.548c-1.028,1.417-2.264,2.6-3.29,4.018l-0.64.548V39.07l-0.548.457V39.71l-0.548.457v0.183l-0.548.457a1.179,1.179,0,0,1-.457.548,3.677,3.677,0,0,0,.366.731l0.366,0.274V42.54l0.183,0.091,0.091,0.274L73.3,43.18v0.183l0.366,0.274v0.183l0.366,0.274v0.183l0.274,0.183v0.183l0.366,0.274V45.1l0.366,0.274v0.183L75.4,45.828v0.183l0.274,0.183a2.856,2.856,0,0,0,.366.639,4.351,4.351,0,0,1-.091,1.461H75.861v0.183H75.769V48.75H75.678v0.183H75.587v0.274H75.5l-0.091.365H75.312v0.274H75.221v0.183H75.13V50.3H75.038l-0.091.365H74.855l-0.091.457H74.673V51.4H74.581v0.183H74.49v0.274H74.4l-0.091.365H74.216l-0.091.457H74.033v0.274H73.941l-0.091.365H73.759V53.59H73.667l-0.091.457H73.484v0.183H73.393V54.5H73.3l-0.091.365H73.119v0.274H73.027v0.183H72.936V55.6H72.845l-0.091.365H72.662v0.274H72.57l-0.091.457H72.388v0.183H72.3v0.274H72.2l-0.091.365H72.022v0.274H71.931v0.183H71.839v0.274H71.748l-0.091.365H71.565v0.274H71.474v0.183H71.382v0.274H71.291v0.183H71.2V59.8H71.108v0.183H71.017l-0.274.913H70.651l-0.091.365H70.468v0.274H70.377v0.183H70.286v0.274H70.194v0.183H70.1l-0.091.457-0.183.091V62.9l-0.548.457H69.1v0.091H68.915v0.091l-11.79,1.735c0.093,0.228.263,0.443,0.366,0.639V66.1h0.091v0.274h0.091l0.183,0.548h0.091l0.183,0.548h0.091l0.091,0.365H58.4V68.11H58.5v0.183h0.091l0.091,0.365H58.77v0.274h0.091v0.183h0.091V69.3h0.091V69.48h0.091v0.274h0.091l0.091,0.365H59.41v0.274H59.5l0.091,0.365h0.091v0.274h0.091v0.183h0.091v0.274h0.091v0.183h0.091l0.091,0.457h0.091V72.4h0.091v0.183h0.091l0.091,0.548H60.6v0.183h0.091l0.091,0.548h0.091v0.183h0.091l0.183,0.822h0.091v0.274h0.091v0.183H61.42L61.6,76.146h0.091V76.42h0.091l0.183,0.913H62.06a3.441,3.441,0,0,0,1.462.183c0.175,0.015.183,0.091,0.183,0.091H64.71V77.7h1.1V77.79h1.005v0.091h1.1v0.091h1.1v0.091h1.005v0.091h1.1v0.091h1.1v0.091H73.21v0.091h1.1V78.52h0.457s0,0.057.183,0.091c0.09,0.175.295,0.374,0.366,0.548v0.365H75.4V79.8H75.5l0.091,0.639h0.091l0.091,0.639h0.091v0.365A7.629,7.629,0,0,1,76.5,84a0.844,0.844,0,0,0-.183.365H76.226l-0.183.274H75.861V84.73l-2.468-.091V84.548H72.3V84.456H71.291V84.365L69.1,84.274V84.182H68.092V84.091H67V84H65.99V83.908h-1.1V83.817H63.8V83.726H63.522Zm-2.468-42.19a3.353,3.353,0,0,1-.914.183,1.593,1.593,0,0,1-.457.639H59.592V42.54H59.5l-0.183.274L59.044,43V43.18l-0.64.548V43.91l-0.548.457v0.183l-0.548.457v0.183l-0.548.457v0.183l-0.548.457a2.973,2.973,0,0,1-.366.639,4.3,4.3,0,0,0,.183,1.187c0.257,0.145.453,0.423,0.731,0.548h0.274V48.75h0.183v0.091l0.548,0.091v0.091h0.183v0.091L58.77,49.3v0.091h0.183v0.091L59.5,49.572v0.091h0.183v0.091l0.548,0.091v0.091h0.183v0.091l0.823,0.183V50.3H61.42v0.091l0.548,0.091v0.091h0.183v0.091a1.76,1.76,0,0,0,1.462,0H63.8V50.577l0.548-.457V49.937l0.548-.457V49.3l0.548-.457V48.659L65.99,48.2V48.02l0.548-.457V47.38l0.548-.457V46.741l0.64-.548V46.011l0.548-.457V45.371l0.548-.457V44.732l0.548-.457V44.093l0.548-.457V43.454L70.468,43V42.814l0.548-.457V42.175l0.183-.091V41.993l0.274-.183a1.117,1.117,0,0,1-.091-0.73l0.457-.365V40.531l0.548-.457V39.892l0.548-.457V39.253l0.548-.457V38.614l0.64-.548V37.883l0.548-.457V37.244l0.548-.457V36.6l0.548-.457V35.965l0.548-.456V35.326l0.548-.457V34.687l0.548-.457V34.048l0.64-.548V33.317l0.548-.457V32.678l0.548-.457V32.039l0.274-.183V30.943c-0.1-.1-0.036,0-0.091-0.183l-0.274-.183V30.486H78.877V30.395l-0.823-.183V30.121H77.871V30.03l-0.823-.183V29.756H76.866V29.664l-0.823-.183V29.39H75.861V29.3l-0.823-.183V29.025H74.855V28.934l-0.823-.183a3.477,3.477,0,0,0-1.554-.457l-0.731.639v0.183H71.657l-0.183.274-0.366.274v0.183L70.56,30.3v0.183l-0.548.457v0.183l-0.548.457v0.183l-0.274.183-0.183.274H68.915V32.4l-0.548.457v0.183l-0.274.183-0.183.274H67.818v0.183l-0.64.548v0.183l-0.548.457v0.183l-0.548.457v0.183l-0.548.457v0.183l-0.548.457V36.97l-0.548.457v0.183l-0.548.457v0.183l-0.64.548v0.183l-0.548.457v0.183l-0.548.457v0.183l-0.274.183-0.183.274H61.6V40.9H61.512A1.635,1.635,0,0,0,61.055,41.536Zm-2.1.457a4.918,4.918,0,0,1-1.371.183l-3.656.548-0.091.183H53.652V43l-0.183.091v0.183l-0.183.091-0.091.457H53.1V44H53.012v0.274H52.92v0.183H52.829v0.274H52.738v0.183H52.646v0.274H52.555l-0.091.365H52.372v0.274H52.281v0.183H52.189v0.274H52.1l-0.091.365H51.915v0.274H51.824v0.183H51.732V47.38H51.641v0.183H51.549v0.274H51.458l-0.091.365H51.275v0.274H51.184v0.183H51.093v0.274H51L50.91,49.3H50.818v0.274H50.727v0.183H50.636l-0.091.457H50.453v0.274H50.361l-0.091.365H50.179v0.274H50.087v0.183H50v0.274H49.9l-0.091.365H49.722l-0.091.548H49.539v0.274H49.447l-0.091.365H49.265v0.274H49.173V53.59H49.082v0.274H48.99l-0.091.365H48.808l-0.274.913H48.442v0.183H48.351V55.6H48.259v0.183H48.168l-0.091.457H47.985v0.274H47.894l-0.091.365H47.711v0.274H47.619v0.183H47.528a3.8,3.8,0,0,0-.091,1.278,2.012,2.012,0,0,1,.457.639l0.366,0.274v0.183l0.366,0.274v0.183l0.366,0.274v0.183l0.183,0.091,0.091,0.274,0.365,0.274v0.183L50,61.718V61.9l0.274,0.183v0.183l0.366,0.274v0.183L51,63l0.091,0.274,0.183,0.091v0.183l0.365,0.274V64l0.366,0.274v0.183l0.548,0.457v0.091h0.274V65.1l3.93-.457V64.549l0.457,0.091V64.549h0.548C58.729,64.265,60,64.28,60.963,64H61.6V63.909h0.64V63.818h0.64V63.727h0.64c0.532-.153,1.306-0.214,1.828-0.365h0.64V63.27h0.64V63.179h0.64V63.087h0.64V63h0.64V62.9l0.366-.091,0.091-.183h0.183L70.1,60.713V60.439h0.091l0.091-.365h0.091V59.8h0.091V59.617H70.56l0.091-.457h0.091V58.887h0.091l0.091-.365h0.091l0.274-.913h0.091V57.426h0.091V57.152h0.091V56.969h0.091l0.091-.457h0.091V56.238h0.091l0.091-.365h0.091V55.6H72.2V55.417H72.3V55.143h0.091l0.091-.365H72.57l0.091-.457h0.091V54.047h0.091l0.091-.365h0.091V53.407h0.091V53.225H73.21l0.091-.457h0.091V52.494h0.091l0.091-.365h0.091V51.855h0.091V51.672H73.85V51.4h0.091l0.091-.365h0.091V50.759h0.091V50.577h0.091V50.3H74.4V50.12H74.49V49.846h0.091l0.091-.365h0.091l0.091-.457h0.091V48.75h0.091c0.133-.273.589-1.364,0.274-1.735a1.508,1.508,0,0,0-.366-0.639l-0.183-.091V46.1l-0.274-.183V45.737l-0.366-.274V45.28l-0.365-.274V44.823l-0.366-.274V44.367l-0.274-.183V44l-0.366-.274V43.545l-0.366-.274V43.088L72.2,43l-0.366-.548a0.16,0.16,0,0,0-.091.091c-0.273.184-.041,0.084-0.183,0.274l-0.64.548v0.183L70.377,44v0.183l-0.548.457v0.183l-0.548.457v0.183l-0.548.457V46.1l-0.548.457v0.183l-0.548.457V47.38L67,47.928v0.183l-0.548.457V48.75l-0.548.457v0.183l-0.548.457v0.183l-0.548.457v0.183l-0.183.091-0.274.365-0.548.183V51.4H63.522V51.49a2.4,2.4,0,0,1-1.737-.365H61.512V51.033H61.237V50.942H61.055V50.851H60.78V50.759l-0.548-.091V50.577H60.049V50.485L59.5,50.394V50.3H59.318V50.211L58.77,50.12V50.029H58.5V49.937H58.313V49.846H58.039V49.755H57.764V49.663H57.582V49.572l-1.462-.457-0.091-.183H55.845a3.172,3.172,0,0,1-.731-1.826l0.365-1,0.274-.183V45.737L56.3,45.28V45.1l0.548-.457V44.458L57.4,44V43.819l0.548-.457V43.18l0.548-.457V42.54h0.091l0.457-.548H58.953Zm3.93,41.642a10.812,10.812,0,0,1-2.1-.183c0.341,1.821.636,4.332-.091,5.936a8.669,8.669,0,0,1-1.462-.548l-0.091-.183H58.953V88.566l-0.274-.091-0.091-.183H58.4l-0.183-.274H58.039l-0.183-.274H57.764l-0.091-.183H57.49l-0.548-.639H56.759L56.3,86.374l-0.914-.822V85.369l-0.823-.731V84.456H54.474l-0.183-.274-0.366-.274V83.726l-0.183-.091V83.543l-0.183-.091V83.269L53.1,82.9V82.721L52.92,82.63l-0.091-.274-0.366-.274V81.9l-0.274-.183V81.534l-0.274-.183V81.169l-0.274-.183V80.8l-0.274-.183V80.438l-0.183-.091V80.164l-0.274-.183V79.8l-0.183-.091V79.525H50.636l-0.091-.274-0.183-.091V78.977l-0.274-.183V78.612L49.9,78.52l-0.091-.274H49.722V78.064l-0.183-.091-0.091-.365-0.183-.091V77.333l-0.183-.091V77.059L48.9,76.968V76.785l-0.183-.091-0.091-.365H48.533l-0.091-.274-0.183-.091V75.781H48.168V75.6l-0.183-.091-0.091-.365-0.183-.091-0.091-.365-0.183-.091-0.091-.365-0.183-.091-0.091-.365-0.183-.091-0.183-.548-0.183-.091-0.183-.548L46.157,72.4V72.219H46.066V72.037H45.974V71.854H45.883V71.671L45.7,71.58V71.4H45.609V71.215H45.517V71.032H45.426V70.85H45.335V70.667H45.243V70.484l-0.183-.091V70.21H44.969V70.028H44.878V69.845H44.786V69.662H44.695V69.48H44.6V69.3H44.512l-0.091-.365H44.329V68.749H44.238V68.567H44.146V68.384H44.055V68.2H43.964l-0.091-.365H43.781V67.653H43.689V67.379H43.6V67.2H43.507V67.014H43.415V66.832H43.324l-0.183-.548H43.05V66.01H42.958V65.827H42.867l-0.183-.548H42.593V65.005H42.5L42.41,64.64H42.319V64.366H42.227L42.136,64H42.044V63.727H41.953V63.544H41.862V63.27H41.77L41.679,62.9H41.587L41.5,62.448H41.4V62.174H41.313V61.992H41.222l-0.091-.548H41.039V61.261H40.948l-0.091-.548H40.765V60.53H40.673V60.256H40.582V59.983H40.491V59.709H40.4V59.435c-0.689-1.581-1.093-3.481-1.645-5.205V53.773H38.663V53.407H38.571V52.951H38.48V52.494H38.389V51.946H38.3V51.4a11.5,11.5,0,0,1-.274-3.1V47.015a5.382,5.382,0,0,0,.274-1,2.234,2.234,0,0,1,1.371.457l0.366,0.091,0.091,0.183h0.183L40.4,46.924h0.183l0.091,0.183h0.183l0.274,0.365h0.183l0.274,0.365H41.77l1.1,1.187H43.05L43.141,49.3l0.183,0.091L43.6,49.755l0.914,0.822v0.183l0.548,0.457V51.4l0.548,0.457v0.183l0.366,0.274v0.183l0.366,0.274v0.183l0.274,0.183v0.183L46.98,53.59v0.183l0.274,0.183v0.183l0.274,0.183V54.5l0.183,0.091L47.8,54.869h0.091V54.777h0.091l0.091-.457h0.091V54.047h0.091V53.864h0.091V53.59h0.091l0.366-1H48.625l-0.091-.274-0.366-.274V51.855l-0.274-.183V51.49l-0.366-.274V51.033l-0.457-.365V50.485l-0.548-.457V49.846l-0.731-.639V49.024L44.878,48.2l-1.28-1.37H43.415l-0.457-.548H42.776l-0.366-.457-0.274-.091-0.091-.183H41.862l-0.091-.183L41.5,45.28V45.189H41.313l-0.091-.183-0.274-.091V44.823l-0.366-.091V44.641l-0.548-.183V44.367H39.759V44.276H39.577V44.184H39.3V44.093H38.846A2.15,2.15,0,0,0,37.84,44v0.091H37.566v0.091l-0.366.091v0.091H36.926l-0.091.183a2.766,2.766,0,0,0-.548.639v0.183H36.2v0.183H36.1l-0.183.913H35.829V46.65l-0.183.091v0.183l-0.274.183v0.183H35.281v2.648h0.091v0.274a17.854,17.854,0,0,0,.823,4.566l0.091,0.731h0.091l0.091,0.731h0.091V56.6h0.091l0.091,0.639h0.091v0.274h0.091v0.274h0.091l0.091,0.639H37.2V58.7h0.091v0.274h0.091v0.274h0.091v0.274h0.091V59.8h0.091l0.091,0.548H37.84v0.274h0.091V60.8h0.091v0.274h0.091l0.091,0.548H38.3v0.183h0.091l0.091,0.548h0.091v0.183h0.091v0.274h0.091V63h0.091V63.27h0.091v0.183h0.091v0.274H39.12v0.183h0.091v0.274H39.3v0.183h0.091V64.64h0.091l0.091,0.365h0.091v0.274h0.091l0.091,0.365h0.091v0.274h0.091V66.1h0.091l0.091,0.365h0.091V66.74H40.4v0.183h0.091l0.183,0.548h0.091v0.274h0.091l0.183,0.548H41.13v0.183h0.091v0.183h0.091v0.183H41.4v0.183H41.5v0.183h0.091V69.48h0.091l0.183,0.548h0.091V70.21h0.091v0.183h0.091v0.183h0.091v0.183h0.091v0.183H42.41v0.183l0.183,0.091V71.4h0.091V71.58h0.091v0.183h0.091v0.183h0.091v0.183H43.05v0.183h0.091v0.183h0.091l0.091,0.365,0.183,0.091v0.183H43.6v0.183h0.091V73.5h0.091v0.183h0.091v0.183l0.183,0.091L44.238,74.5l0.183,0.091L44.6,75.142l0.183,0.091L44.878,75.6,45.06,75.69l0.091,0.365,0.183,0.091,0.091,0.365L45.609,76.6,45.7,76.968l0.183,0.091v0.183h0.091v0.183h0.091L46.157,77.7,46.34,77.79l0.091,0.365,0.183,0.091v0.183h0.091L46.8,78.7l0.183,0.091v0.183l0.183,0.091v0.183l0.183,0.091v0.183l0.183,0.091V79.8l0.183,0.091v0.183H47.8l0.091,0.274,0.183,0.091v0.183L48.351,80.8v0.183l0.183,0.091V81.26l0.274,0.183v0.183l0.183,0.091V81.9l0.274,0.183v0.183l0.274,0.183V82.63l0.274,0.183V83l0.274,0.183V83.36l0.366,0.274v0.183l0.366,0.274v0.183l0.366,0.274V84.73L51.641,85.1v0.183l0.366,0.274v0.091l0.183,0.091v0.183l0.823,0.731v0.183l0.822,0.731,1.005,1.1,0.274,0.091,0.548,0.639h0.183l0.274,0.365H56.3l0.274,0.365h0.183L56.85,90.3h0.183l0.183,0.274,0.365,0.091,0.091,0.183,0.366,0.091,0.091,0.183L58.5,91.214v0.091H61.42a1.5,1.5,0,0,1,.548-0.365l0.274-.365h0.091V90.392l0.183-.091V90.118h0.091V89.935H62.7V89.661h0.091V89.388h0.091V89.114h0.091V88.566a8.336,8.336,0,0,0,.183-2.648H63.065V84.73H62.974Zm-2.742-.274H59.135V83.269a4.59,4.59,0,0,1-1.005-.091L58.039,83a0.521,0.521,0,0,1-.274-0.365H57.673l-0.091-.639H57.49V81.625H57.4V81.351H57.307V80.986H57.216l-0.274-1.278a3.666,3.666,0,0,1-.366-2.192l0.64-.457,1.371,0.091V77.059H58.5L58.4,76.511H58.313V76.237H58.221V76.055H58.13V75.781H58.039V75.507H57.947V75.233H57.856V74.959H57.764V74.776H57.673l-0.091-.548H57.49L57.4,73.772H57.307V73.589H57.216V73.315H57.125V73.133H57.033V72.859H56.942L56.85,72.4H56.759V72.219H56.668V71.945H56.576l-0.091-.365H56.393V71.306H56.3l-0.091-.365H56.119V70.667H56.028L55.936,70.3H55.845V70.119H55.754V69.845H55.662V69.662H55.571V69.48H55.479L55.3,68.932H55.205V68.658H55.114V68.475H55.023V68.293H54.931V68.11H54.84V67.927H54.748V67.745H54.657V67.562H54.566V67.379H54.474V67.2a5.663,5.663,0,0,1-.731-1.552c-1.557.272-1.913-.471-2.559-1.37L50.818,64V63.818l-0.183-.091-0.091-.274-0.366-.274V63l-0.366-.274V62.539l-0.183-.091-0.091-.274L49.173,61.9V61.718l-0.366-.274V61.261l-0.274-.183V60.9l-0.366-.274V60.439L47.8,60.165V59.983l-0.366-.274V59.526l-0.274-.183A2.929,2.929,0,0,0,46.8,58.7V57.517h0.091V57.334H46.98V57.06h0.091V56.878h0.091V56.6h0.091l0.091-.365h0.091l0.274-.822a1.289,1.289,0,0,1-.731-0.822l-0.274-.183V54.229l-0.274-.183V53.864l-0.366-.274-0.091-.274-0.183-.091V53.042l-0.366-.274V52.586l-0.365-.274V52.129l-0.274-.183L44.6,51.672H44.512V51.49l-0.548-.457V50.851l-1.279-1.187L41.5,48.385H41.313l-0.274-.365H40.856l-0.091-.183H40.673l-0.091-.183H40.4l-0.091-.183H40.125l-0.091-.183-1.279-.639a19.665,19.665,0,0,0,.64,7.123v0.457h0.091v0.365h0.091V54.96h0.091v0.365h0.091V55.6h0.091l0.091,0.731h0.091l0.183,0.913h0.091v0.274H40.4v0.274h0.091v0.274h0.091l0.183,0.913h0.091v0.183h0.091v0.274h0.091v0.274H41.13v0.274h0.091v0.274h0.091v0.183H41.4L41.5,60.987h0.091V61.17h0.091l0.091,0.548h0.091V61.9h0.091v0.274h0.091l0.091,0.457h0.091L42.319,63H42.41V63.27H42.5v0.183h0.091v0.274h0.091l0.091,0.365h0.091v0.274h0.091l0.091,0.365h0.091v0.274h0.091l0.183,0.548h0.091v0.183H43.6V66.01h0.091l0.183,0.548h0.091V66.74h0.091l0.091,0.365h0.091v0.274h0.091v0.183h0.091l0.091,0.365H44.6l0.091,0.365h0.091v0.183h0.091v0.183h0.091v0.183H45.06v0.183h0.091v0.183h0.091v0.183h0.091v0.183h0.091v0.183h0.091v0.183h0.091v0.183l0.183,0.091v0.183h0.091v0.183h0.091v0.183h0.091v0.183h0.091v0.183h0.091v0.183L46.431,71.4V71.58h0.091v0.183h0.091v0.183h0.091v0.183l0.183,0.091,0.183,0.548,0.183,0.091,0.183,0.548L47.619,73.5l0.091,0.365,0.183,0.091,0.091,0.365,0.183,0.091,0.091,0.365,0.183,0.091,0.091,0.365,0.183,0.091v0.183h0.091V75.69H48.9l0.091,0.274,0.183,0.091,0.091,0.365,0.183,0.091v0.183l0.183,0.091v0.183l0.183,0.091v0.183L50,77.333,50.087,77.7h0.091l0.091,0.274,0.183,0.091v0.183l0.183,0.091V78.52L50.91,78.7v0.183l0.183,0.091V79.16h0.091l0.091,0.274,0.183,0.091v0.183l0.274,0.183v0.183l0.183,0.091v0.183l0.274,0.183v0.183l0.274,0.183v0.183l0.274,0.183v0.183l0.274,0.183v0.183l0.366,0.274,0.091,0.274,0.183,0.091V82.63L54.109,83v0.183l0.183,0.091V83.36l0.183,0.091v0.183l0.64,0.548v0.183l0.822,0.73v0.183L56.3,85.552l0.731,0.822h0.183l0.548,0.639h0.183l0.366,0.457H58.5l0.183,0.274h0.183l0.091,0.183h0.183l0.091,0.183H59.41L59.5,88.292h0.183v0.091c0.228,0.125.433,0.152,0.64,0.274V88.566a3.753,3.753,0,0,0,.183-1.552A31.806,31.806,0,0,0,60.141,83.36Zm-12.8,7.579v0.183h7.129a9.361,9.361,0,0,0,2.468-.091,0.737,0.737,0,0,1-.366-0.183V90.757H56.393L56.3,90.575H56.119l-0.274-.365H55.662l-0.274-.365-0.274-.091-0.548-.639H54.383L53.56,88.2l-1.005-.913V87.1l-0.823-.731V86.191L51.549,86.1V86.009l-0.365-.274V85.552l-0.457-.365V85l-0.366-.274V84.548L50,84.274V84.091l-0.366-.274V83.634l-0.274-.183V83.269l-0.274-.183V82.9l-0.274-.183-0.091-.274-0.183-.091V82.173l-0.183-.091V81.9l-0.274-.183V81.534l-0.183-.091V81.26l-0.274-.183V80.895L47.437,80.8l-0.091-.274H47.254V80.347l-0.183-.091V80.073l-0.183-.091V79.8l-0.183-.091V79.525l-0.183-.091V79.251L46.34,79.16V78.977l-0.183-.091V78.7l-0.183-.091-0.091-.365L45.7,78.155V77.973l-0.183-.091-0.091-.365-0.183-.091-0.091-.365-0.183-.091L44.878,76.6l-0.183-.091L44.6,76.146l-0.183-.091-0.091-.365L44.146,75.6l-0.183-.548-0.183-.091L43.6,74.411l-0.183-.091V74.137H43.324V73.954H43.232V73.772H43.141V73.589H43.05V73.407l-0.183-.091V73.133H42.776V72.95H42.684V72.767H42.593V72.585H42.5V72.4H42.41V72.219H42.319V72.037H42.227V71.854H42.136V71.671l-0.183-.091V71.4H41.862V71.215H41.77V71.032H41.679V70.85H41.587V70.667H41.5V70.484H41.4V70.3H41.313l-0.183-.548H41.039V69.48H40.948l-0.091-.365H40.765V68.932H40.673V68.749H40.582V68.567H40.491l-0.183-.548H40.216V67.745H40.125V67.562H40.034l-0.183-.548H39.759V66.74H39.668V66.558H39.577l-0.091-.365H39.394V65.918H39.3l-0.091-.365H39.12V65.279H39.028l-0.091-.365H38.846V64.64H38.754V64.457H38.663L38.571,64H38.48V63.727H38.389V63.544H38.3V63.27H38.206V63.087H38.114V62.813H38.023V62.631H37.932l-0.091-.548H37.749V61.9H37.657V61.626H37.566l-0.091-.548c-0.6-1.375-1.033-3.016-1.554-4.475l-0.183-1.1a22.826,22.826,0,0,1-1.1-6.94H34.55a0.854,0.854,0,0,1-.183.183v0.183l-0.183.091v0.183l-0.274.183v0.183l-0.183.091v0.183l-0.274.183v0.183L33.27,50.3v0.183L33,50.668v0.183l-0.183.091v0.183l-0.274.183V51.49l-0.183.091v0.183l-0.274.183v0.183L31.9,52.22V52.4l-0.274.183v0.183H31.534l-0.091.274-0.183.091v0.183l-0.274.183v0.183l-0.183.091v0.183l-0.274.183v0.183l-0.183.091v0.183l-0.274.183V54.96l-0.183.091v0.183l-0.274.183V55.6H29.523a1.055,1.055,0,0,1-.183.274l0.091,1.187h0.091v0.822c0.157,0.531.208,1.305,0.366,1.826l0.091,1.1h0.091l0.091,0.913c0.239,0.75.393,1.655,0.64,2.374l0.091,0.731h0.091v0.365h0.091v0.274h0.091v0.365H31.26l0.091,0.639h0.091V66.74h0.091v0.274h0.091v0.274h0.091v0.365h0.091L31.9,68.2h0.091v0.183h0.091l0.183,0.822h0.091v0.183h0.091l0.091,0.548h0.091v0.183h0.091v0.274h0.091v0.183H32.9V70.85H33v0.183h0.091v0.274h0.091l0.091,0.365h0.091v0.274h0.091l0.091,0.365h0.091v0.274h0.091v0.183h0.091L34,73.315h0.091v0.274h0.091v0.183h0.091v0.183h0.091v0.183h0.091V74.32H34.55V74.5h0.091v0.183h0.091v0.183h0.091V75.05h0.091v0.183h0.091v0.183H35.1V75.6l0.183,0.091,0.183,0.548h0.091V76.42h0.091V76.6h0.091v0.183l0.183,0.091L36.1,77.425l0.183,0.091,0.183,0.548,0.183,0.091,0.091,0.365,0.183,0.091v0.183l0.183,0.091v0.183H37.2v0.183l0.183,0.091v0.183l0.183,0.091V79.8l0.183,0.091,0.091,0.365h0.091l0.091,0.274,0.183,0.091V80.8l0.274,0.183v0.183h0.091l0.091,0.274,0.183,0.091v0.183L39.12,81.9v0.183L39.3,82.173v0.183l0.274,0.183v0.183L39.851,82.9v0.183l0.274,0.183v0.183l0.366,0.274L40.582,84l0.183,0.091v0.183l0.457,0.365a38.755,38.755,0,0,0,4.3,4.657l0.823,0.913L46.614,90.3A1.7,1.7,0,0,0,47.345,90.94Zm-11.516.365H46.614V91.214a13.125,13.125,0,0,1-2.193-2.1,28.981,28.981,0,0,1-3.2-3.47l-0.457-.365V85.1l-0.457-.365-0.091-.274-0.183-.091V84.182l-0.366-.274V83.726l-0.274-.183V83.36l-0.274-.183V83l-0.274-.183V82.63l-0.183-.091V82.356l-0.274-.183V81.991H38.3l-0.091-.274-0.183-.091V81.443l-0.274-.183V81.077l-0.183-.091-0.091-.274H37.383l-0.091-.365-0.183-.091V80.073l-0.183-.091V79.8l-0.183-.091-0.091-.365H36.561l-0.091-.274-0.183-.091L36.2,78.612l-0.183-.091-0.183-.548-0.183-.091-0.183-.548-0.183-.091V77.059H35.19V76.877H35.1V76.694H35.007V76.511H34.915l-0.091-.365-0.183-.091V75.872H34.55V75.69H34.459V75.507H34.367V75.324H34.276V75.142H34.184V74.959H34.093V74.776H34V74.594H33.91V74.411H33.819l-0.183-.548H33.545V73.589H33.453V73.407H33.362l-0.183-.548H33.088V72.585H33L32.9,72.219H32.813V71.945H32.722l-0.091-.365H32.539V71.306H32.448V71.124H32.356V70.85H32.265V70.667H32.174V70.393H32.082V70.21H31.991L31.9,69.662H31.808V69.48H31.717l-0.183-.822H31.442V68.475H31.351V68.2H31.26V67.927H31.168V67.653H31.077V67.288H30.985V67.014H30.894V66.74H30.8V66.466H30.711l-0.091-.639H30.529V65.462c-0.308-.856-0.54-1.947-0.823-2.831l-0.091-.913H29.523L29.34,60.256H29.249V59.709H29.158V59.161H29.066V58.521a8.711,8.711,0,0,1-.274-2.1H28.7v0.091a2.191,2.191,0,0,0-.366.548l-0.183.091v0.183l-0.274.183V57.7H27.787l-0.091.274-0.183.091v0.183l-0.274.183v0.183l-0.183.091v0.183l-0.274.183v0.183H26.69l-0.091.274-0.183.091V59.8l-0.274.183v0.183l-0.183.091v0.183l-0.183.091v0.183L25.5,60.9v0.183l-0.183.091v0.183l-0.274.183v0.183H24.953l-0.091.274-0.183.091v0.183l-0.274.183v0.183l-0.183.091V62.9l-0.274.183V63.27H23.857l-0.091.274-0.183.091v0.183L23.308,64v0.183l-0.183.091v0.183l-0.274.183v0.183l-0.183.091V65.1H22.577a0.646,0.646,0,0,0-.091.365,1.95,1.95,0,0,1,.183.731H22.76v0.365h0.091L22.943,67.2h0.091v0.274h0.091v0.274h0.091l0.091,0.639H23.4l0.091,0.548h0.091v0.274h0.091V69.48h0.091v0.274h0.091v0.274h0.091V70.3h0.091v0.274h0.091L24.314,71.4h0.091V71.58H24.5l0.091,0.548h0.091v0.183h0.091v0.274h0.091v0.183h0.091v0.274h0.091L25.136,73.5h0.091v0.183h0.091v0.274H25.41L25.5,74.32h0.091v0.274h0.091l0.091,0.365h0.091v0.183h0.091v0.274H26.05l0.183,0.548h0.091l0.091,0.457h0.091V76.6H26.6l0.091,0.365h0.091v0.183h0.091v0.183h0.091v0.183h0.091V77.7h0.091v0.183h0.091v0.183H27.33v0.183h0.091v0.183h0.091v0.183H27.6v0.183H27.7v0.183l0.183,0.091,0.091,0.365h0.091L28.152,79.8h0.091v0.183h0.091v0.183h0.091v0.183h0.091v0.183h0.091L28.7,80.895l0.183,0.091v0.183h0.091v0.183h0.091v0.183h0.091v0.183h0.091V81.9l0.183,0.091v0.183h0.091v0.183l0.183,0.091L29.889,83l0.183,0.091,0.091,0.365,0.183,0.091,0.091,0.365L30.62,84v0.183L30.8,84.274l0.091,0.274h0.091l0.091,0.365L31.26,85v0.183l0.183,0.091v0.183l0.183,0.091v0.183h0.091l0.091,0.274L31.991,86.1v0.183l0.183,0.091v0.183l0.274,0.183v0.183l0.183,0.091V87.2L32.9,87.378v0.183l0.183,0.091v0.183l0.274,0.183V88.2l0.274,0.183v0.183l0.274,0.183v0.183L34.276,89.2l0.091,0.274L34.55,89.57v0.183l0.457,0.365V90.3l0.366,0.274v0.183A1.161,1.161,0,0,1,35.829,91.305ZM85.183,64.092a5,5,0,0,1,1.645.457l0.091,0.183H87.1l0.183,0.274h0.091v0.183l0.274,0.183,0.183,0.548h0.091l0.091,0.548h0.091v0.183H88.2l0.091,0.457h0.091l0.091,0.548h0.091v0.183h0.091V68.11h0.091v0.183h0.091l0.091,0.548h0.091v0.183h0.091L89.2,69.48H89.3l0.091,0.548h0.091V70.21H89.57v0.274h0.091v0.183h0.091l0.091,0.548h0.091V71.4h0.091v0.274h0.091v0.183H90.21L90.3,72.4h0.091v0.183h0.091v0.274h0.091v0.183h0.091l0.091,0.548H90.85v0.183h0.091v0.274h0.091v0.183h0.091l0.091,0.457h0.091v0.274H91.4v0.183h0.091l0.091,0.548h0.091l0.091,0.457h0.091v0.183h0.091V76.6h0.091v0.183h0.091l0.091,0.457h0.091v0.274H92.4V77.7h0.091l0.091,0.548h0.091v0.183h0.091V78.7a5.214,5.214,0,0,1,.731,2.283H93.409v0.183a0.547,0.547,0,0,1-.274.274,1.853,1.853,0,0,1-1.554,0V81.351H91.4V81.26H91.124V81.169H90.941V81.077H90.667V80.986H90.484V80.895L90.027,80.8V80.712H89.753V80.621H89.57V80.529H89.3V80.438H89.113V80.347l-0.548-.091V80.164H88.382V80.073H88.108V79.982H87.925V79.89H87.651V79.8H87.468V79.708l-0.457-.091V79.525H86.737c-2.6-1.159-5.439-2.133-8.043-3.288H78.42V76.146H78.237V76.055l-0.457-.091V75.872H77.506V75.781H77.323V75.69H77.049V75.6H76.866V75.507H76.592V75.416H76.409V75.324l-0.548-.091V75.142H75.678V75.05H75.4V74.959H75.221V74.868l-0.457-.091V74.685H74.49V74.594H74.307V74.5H74.033V74.411H73.85V74.32H73.576V74.228H73.393V74.137H73.119V74.046H72.936V73.954l-0.457-.091V73.772H72.2V73.681H72.022V73.589L71.474,73.5V73.407H71.291V73.315H71.017V73.224H70.834V73.133H70.56V73.041H70.377V72.95H70.1V72.859H69.92V72.767H69.646V72.676H69.463V72.585H69.189V72.493H69.006V72.4H68.732V72.311l-0.457-.091V72.128H68.092V72.037l-0.457-.091-1.005-.913V70.85H66.538a0.726,0.726,0,0,0-.183-0.365,6.189,6.189,0,0,1,.091-1.187l0.274-.091V69.115H66.9V69.023H67.27V68.932h0.274V68.841l1.005-.183V68.567l1.005-.183V68.293l0.731-.091V68.11H70.56V68.019l1.005-.183V67.745l0.731-.091c2.319-.838,4.99-1.268,7.312-2.1l0.731-.091c1.02-.367,2.27-0.64,3.29-1h0.366V64.366l0.64-.091V64.183h0.548V64.092Zm-0.457.731v0.091l-0.64.091V65.1H83.721v0.091H83.447v0.091l-1.005.183v0.091l-1.005.183v0.091l-0.731.091V66.01H80.43V66.1l-1.005.183v0.091l-0.731.091c-2.32.837-4.989,1.269-7.312,2.1l-0.731.091v0.091H70.377v0.091l-1.005.183v0.091l-1.005.183v0.091H68V69.48H67.635v0.091l-0.548.091v0.091H67V70.3a0.766,0.766,0,0,1,.183.365l0.457,0.365,0.091,0.183h0.183L68,71.4l0.457,0.091V71.58H68.64v0.091L69.1,71.763v0.091h0.274v0.091h0.183v0.091L70.1,72.128v0.091h0.183v0.091H70.56V72.4h0.183v0.091h0.274v0.091H71.2v0.091l0.457,0.091v0.091h0.274V72.95h0.183v0.091h0.274v0.091H72.57v0.091h0.274v0.091h0.183v0.091H73.3V73.5h0.183v0.091h0.274v0.091h0.183v0.091l0.548,0.091c2.515,1.1,5.251,2.1,7.769,3.2l0.548,0.091v0.091H82.99v0.091h0.274v0.091h0.183v0.091L83.9,77.607V77.7h0.274V77.79H84.36v0.091h0.274v0.091h0.183v0.091h0.274v0.091h0.183v0.091l0.457,0.091v0.091h0.274V78.52h0.183v0.091h0.274V78.7h0.183v0.091l0.548,0.091v0.091h0.183v0.091h0.274V79.16h0.183v0.091h0.274v0.091h0.183v0.091h0.274v0.091h0.183v0.091h0.274v0.091H89.2V79.8l0.457,0.091v0.091h0.274v0.091h0.183v0.091l0.457,0.091v0.091H90.85v0.091h0.183v0.091l0.548,0.091v0.091h0.183V80.8h0.274v0.091a1.818,1.818,0,0,0,.731.091,1.429,1.429,0,0,0,.091-0.548,1.667,1.667,0,0,1-.274-0.639H92.495V79.525H92.4V79.251H92.312V79.068H92.221V78.794H92.129V78.612H92.038l-0.091-.457H91.855V77.881H91.764V77.7H91.672V77.425H91.581V77.242H91.489L91.4,76.694c-1.126-2.561-2.073-5.368-3.2-7.945L88.108,68.2H88.016V68.019H87.925l-0.091-.457H87.742l-0.091-.548H87.559V66.832H87.468V66.558H87.377V66.375H87.285V66.1H87.194L87.1,65.736l-0.183-.091L86.463,65.1,86.1,65.005V64.914H85.914V64.822H84.726Zm-30.343.822a2.248,2.248,0,0,0,.366.731v0.183H54.84V66.74h0.091v0.183h0.091v0.183h0.091v0.183h0.091v0.183H55.3v0.183h0.091v0.183h0.091l0.183,0.548h0.091v0.274h0.091l0.183,0.548h0.091v0.183h0.091v0.183H56.3v0.274h0.091l0.091,0.365h0.091v0.183h0.091v0.274h0.091l0.091,0.365h0.091v0.274h0.091l0.091,0.365h0.091v0.274h0.091v0.183H57.4l0.091,0.457h0.091v0.274h0.091v0.183h0.091v0.274h0.091V73.5h0.091l0.091,0.457H58.13L58.221,74.5h0.091v0.183H58.4v0.274H58.5v0.274h0.091v0.274h0.091v0.274H58.77v0.183h0.091l0.366,1.279a11.211,11.211,0,0,1,2.194.183V77.333H61.329l-0.183-.913H61.055L60.872,75.6H60.78V75.416H60.689V75.142H60.6l-0.183-.822H60.323V74.137H60.232l-0.091-.548H60.049V73.407H59.958l-0.091-.548H59.775V72.676H59.684V72.4H59.592V72.219H59.5l-0.091-.457H59.318V71.489H59.227V71.306H59.135V71.032H59.044l-0.091-.365H58.861V70.393H58.77l-0.091-.365H58.587V69.754H58.5V69.571H58.4l-0.091-.365H58.221V68.932H58.13V68.749H58.039l-0.091-.365H57.856V68.11H57.764l-0.091-.365H57.582V67.562H57.49V67.379H57.4V67.2H57.307l-0.183-.548H57.033l-0.091-.457H56.85a4.938,4.938,0,0,0-.366-0.822H55.936A8.238,8.238,0,0,1,54.383,65.644Zm-32.445.548-0.091.274H21.755l-0.091.274-0.183.091v0.183l-0.183.091v0.183l-0.274.183v0.183l-0.183.091v0.183l-0.274.183v0.183H20.475l-0.091.274-0.183.091v0.183l-0.274.183v0.183l-0.183.091V69.48l-0.274.183v0.183l-0.183.091v0.183l-0.274.183v0.183l-0.183.091v0.183l-0.274.183v0.183l-0.183.091a3.469,3.469,0,0,1-.548.822,3.656,3.656,0,0,0,.274.731l0.091,0.639h0.091v0.274h0.091v0.274h0.091v0.274h0.091V74.5h0.091v0.274h0.091V75.05H18.83L18.921,75.6h0.091v0.183H19.1L19.2,76.329h0.091v0.183h0.091l0.091,0.548h0.091v0.183h0.091v0.274h0.091V77.7h0.091v0.274h0.091l0.091,0.365h0.091v0.274H20.2l0.091,0.365h0.091v0.274h0.091L20.658,79.8h0.091v0.183h0.091v0.274h0.091v0.183h0.091L21.115,80.8h0.091L21.3,81.169h0.091v0.183H21.48v0.183h0.091v0.183h0.091V81.9h0.091v0.183h0.091v0.183h0.091v0.183h0.091V82.63H22.12v0.183h0.091V83l0.183,0.091v0.183h0.091v0.183h0.091v0.183h0.091v0.183l0.183,0.091,0.183,0.548,0.183,0.091,0.091,0.365L23.491,85l0.091,0.365,0.183,0.091v0.183h0.091v0.183h0.091L24.039,86.1l0.183,0.091,0.091,0.365L24.5,86.648v0.183h0.091L24.679,87.1,24.862,87.2v0.183h0.091l0.091,0.274,0.183,0.091v0.183L25.5,88.109v0.183h0.091l0.091,0.274,0.183,0.091V88.84l0.183,0.091L26.142,89.2l0.274,0.183V89.57L26.6,89.661v0.183l0.365,0.274V90.3l0.183,0.091,0.091,0.274H27.33a1,1,0,0,1,.274.457h7.312V91.031l-0.365-.274V90.575l-0.457-.365V90.027l-0.274-.183V89.661l-0.366-.274V89.2l-0.274-.183V88.84L32.9,88.657V88.474l-0.274-.183V88.109l-0.183-.091V87.835l-0.274-.183V87.47l-0.183-.091V87.2l-0.274-.183V86.831l-0.183-.091-0.091-.274H31.351V86.283l-0.183-.091V86.009l-0.183-.091V85.735L30.8,85.643l-0.091-.274H30.62L30.529,85H30.437l-0.091-.274-0.183-.091V84.456l-0.183-.091V84.182H29.889V84l-0.183-.091-0.091-.365-0.183-.091L29.249,82.9l-0.183-.091V82.63H28.975V82.447l-0.183-.091V82.173H28.7V81.991H28.609V81.808H28.518V81.625H28.426V81.443l-0.183-.091-0.091-.365H28.061l-0.091-.365H27.878V80.438H27.787V80.256H27.7V80.073H27.6V79.89H27.512l-0.091-.365-0.183-.091V79.251H27.147V79.068H27.055V78.886H26.964V78.7H26.873V78.52H26.781V78.338H26.69L26.6,77.973H26.507V77.79H26.416V77.607H26.324V77.425H26.233V77.242H26.142l-0.091-.365H25.959V76.694H25.867V76.42H25.776V76.237H25.685L25.5,75.69H25.41V75.416H25.319V75.233H25.228l-0.091-.365H25.045V74.594H24.953l-0.091-.365H24.771V73.954H24.679V73.772H24.588V73.5H24.5V73.315H24.405l-0.091-.457H24.222V72.585H24.131V72.4H24.039l-0.091-.548H23.857V71.671H23.765V71.4H23.674V71.124H23.582V70.85H23.491V70.576H23.4V70.3H23.308V70.028H23.217V69.754H23.125V69.48H23.034V69.206H22.943l-0.091-.548H22.76l-0.091-.548H22.577V67.745a5.4,5.4,0,0,1-.457-1.552H21.937Zm-4.753,6.3-0.091.274H17l-0.091.274-0.183.091v0.183l-0.183.091v0.183l-0.274.183v0.183l-0.183.091v0.183l-0.274.183v0.183l-0.183.091v0.183l-0.274.183v0.183l-0.183.091v0.183L14.9,75.69v0.183l-0.183.091v0.183l-0.274.183v0.183L14.26,76.6v0.183l-0.274.183v0.183l-0.183.091v0.183l-0.274.183V77.79l-0.183.091v0.183l-0.274.183v0.183l-0.183.091V78.7l-0.274.183v0.183l-0.183.091v0.183l-0.274.183-0.274.822h0.091l0.091,0.548h0.091v0.183h0.091v0.274h0.091v0.183h0.091v0.274h0.091l0.091,0.457h0.091v0.183H12.8v0.274h0.091l0.091,0.365h0.091V83.36h0.091v0.183h0.091v0.183h0.091v0.183h0.091v0.274h0.091l0.183,0.548H13.8v0.183h0.091v0.274h0.091v0.183h0.091v0.183h0.091v0.183H14.26v0.183h0.091V86.1h0.091l0.183,0.548,0.183,0.091v0.183H14.9V87.1h0.091v0.183h0.091V87.47h0.091v0.183l0.183,0.091v0.183h0.091v0.183H15.54v0.183h0.091v0.183l0.183,0.091v0.183h0.091v0.183l0.183,0.091,0.091,0.365,0.183,0.091,0.091,0.365,0.183,0.091L16.728,90.3h0.091l0.091,0.274,0.183,0.091v0.183l0.183,0.091v0.183l0.183,0.091v0.091h9.505V91.214a2.048,2.048,0,0,1-.457-0.639L26.142,90.3V90.118l-0.183-.091V89.844l-0.183-.091-0.091-.274L25.41,89.3V89.114H25.319l-0.091-.274-0.183-.091V88.566l-0.274-.183V88.2l-0.183-.091L24.5,87.835H24.405V87.652l-0.183-.091V87.378l-0.183-.091V87.1l-0.183-.091-0.091-.365H23.674l-0.091-.274L23.4,86.283V86.1H23.308V85.917l-0.183-.091-0.091-.365-0.183-.091L22.76,85l-0.183-.091-0.183-.548-0.183-.091V84.091H22.12V83.908H22.029V83.726H21.937V83.543l-0.183-.091V83.269H21.663V83.086H21.572V82.9H21.48V82.721H21.389V82.539H21.3V82.356H21.206l-0.091-.365H21.023V81.808H20.932V81.625H20.841V81.443H20.749V81.26H20.658V81.077H20.566l-0.091-.365H20.384V80.529H20.292V80.256H20.2V80.073H20.109l-0.183-.548H19.835V79.251H19.744l-0.091-.365H19.561V78.612H19.47l-0.091-.365H19.287V77.973H19.2V77.79H19.1V77.516H19.013V77.333H18.921l-0.091-.548H18.738V76.6H18.647l-0.091-.548H18.464V75.872H18.373V75.6H18.282V75.324H18.19V75.05H18.1V74.776H18.007l-0.183-.822a5.4,5.4,0,0,1-.457-1.461H17.185ZM57.307,77.7a1.177,1.177,0,0,0-.183.731h0.091l0.091,0.639H57.4v0.365H57.49v0.274h0.091l0.091,0.639h0.091l0.091,0.639h0.091l0.091,0.639H58.13c0.265,0.733-.09,1.024,1.005,1a3.282,3.282,0,0,0,1.005.091v0.091h1.1V82.9h1.005V83h1.1v0.091h0.548v0.091h1.1v0.091H65.99V83.36h1.1v0.091h1.1v0.091h1.005v0.091h1.1v0.091h1.005v0.091h1.1v0.091h1.1a8.918,8.918,0,0,0,2.194.183l0.091-.274h0.091l-0.091-.639H75.678V82.812H75.587l-0.183-1H75.312l-0.091-.639H75.13V80.895H75.038l-0.091-.639H74.855V79.89a3.865,3.865,0,0,0-.366-0.731ZM11.427,80.986l-0.091.274-0.183.091v0.183l-0.274.183V81.9l-0.183.091v0.183l-0.274.183v0.183l-0.183.091v0.183L9.964,83v0.183l-0.183.091v0.183l-0.274.183v0.183l-0.183.091v0.183l-0.274.183v0.183H8.959l-0.091.274-0.183.091V85l-0.274.183v0.183l-0.183.091v0.183l-0.274.183v0.183L7.771,86.1l-0.091.274H7.588v0.183H7.5l-0.091.365H7.314V87.2H7.223v0.457H7.131a4.139,4.139,0,0,0,.457,2.1l0.274,0.183v0.183L8.137,90.3v0.091H8.319L8.5,90.666H8.685v0.091L9.233,90.94v0.091H9.507v0.091h7.037V91.031H16.454V90.849l-0.183-.091V90.575H16.179V90.392L16,90.3V90.118H15.905V89.935l-0.183-.091-0.091-.365-0.183-.091-0.091-.365-0.183-.091V88.748H15.083V88.566H14.991V88.383H14.9V88.2l-0.183-.091V87.926H14.626V87.744H14.534V87.561H14.443V87.378H14.351V87.2L14.169,87.1V86.922H14.077V86.739H13.986V86.557H13.895V86.374H13.8V86.191H13.712V86.009H13.62l-0.183-.548H13.346V85.187H13.255V85H13.163l-0.183-.548H12.889V84.182H12.8V84H12.706V83.817H12.615V83.634H12.524V83.36H12.432L12.341,83H12.249V82.721H12.158V82.539H12.067V82.265H11.975l-0.091-.457H11.792V81.625H11.7A1.238,1.238,0,0,0,11.427,80.986Z"/>
</svg>
