<svg xmlns="http://www.w3.org/2000/svg" width="83.9" height="81" viewBox="0 0 839 810">
  <defs>
    <style>
      .cls-1 {
        fill: #fff;
        fill-rule: evenodd;
      }
    </style>
  </defs>
  <path id="Party_1" data-name="Party 1" class="cls-1" d="M518.529,42.778h1.942c0.365,3.875,2.839,5.317,1.943,8.607h-0.971V55.21h-0.972v2.869H519.5v1.913h-0.971q-0.486,2.391-.971,4.782l-1.943.956V68.6h-0.971l-0.972,3.825H512.7v2.869l-1.943.956v2.869h-0.971V81.03h-0.971V83.9h-0.971v1.913l-1.943.956q-0.486,2.391-.971,4.782l-1.943.956v2.869h-0.971v2.869h-0.972q-0.485,1.912-.971,3.825H499.1v1.913h-0.971v2.869l-1.943.956v2.869h-0.971v1.912h-0.972v2.869h-0.971v1.913l-1.943.956V121.2h-0.971v1.913H489.39v2.869h-0.971v1.912l-1.943.957q-1.457,4.78-2.914,9.563l-1.942.956v2.869h-0.972v1.913h-0.971v2.869h-0.971v1.912l-1.943.956q-1.457,4.782-2.914,9.564l-1.942.956-0.972,5.738h-0.971v1.912l-1.943.957v2.869H467.05q-0.486,1.913-.971,3.825h-0.972v2.869h-0.971v1.912l-1.942.957q-1.458,4.78-2.914,9.563h-1.943c-0.36,2.07-4.668,9.966-5.828,10.519h-3.885c-1.5,1.3-9.543,1.811-12.627.956v-0.956c-5.266-1.449-9.314,1.246-12.627,1.913-2.688,4.854-7.747,7.936-9.713,13.388q-0.484,21.037-.971,42.078c-4.147,2.382-4.965,5.552-11.655,5.738-2.106-1.779-5.721.31-8.742-.957l-0.971-1.912h-3.886q-0.485-.957-0.971-1.913h-2.914V258.9h-1.942v-0.957h-1.943v-0.956h-1.943v-0.956h-1.942v-0.956h-1.943v-0.957h-1.942v-0.956h-2.914l-0.972-1.913h-1.942V250.3c-2.729-.949-4.891.638-6.8,0.956v1.913l-2.914.956v0.957h-1.943v0.956h-1.942l-0.972,1.912-3.885.957-0.971,1.912-3.885.957-0.972,1.912-3.885.957-0.971,1.912-3.885.957-0.972,1.912h-1.942v0.956H323.3v0.957h-1.943v0.956l-6.8-.956v-0.957c-3.2-2.6-3.212-6.4-1.942-10.519v-4.781h0.971V252.21h0.971q0.972-5.261,1.943-10.52h0.971v-5.738h0.972v-2.869h0.971v-1.912h0.971V228.3h0.971v-3.825h0.972c0.7-2.109.2-3.817,0.971-5.738l-2.914-.957V215.87l-2.914-1.913V213h-1.942l-5.828-4.782v-1.912h-0.971l-1.943-2.869h-1.943c-3.507-2.088-4.762-3.056-4.856-8.607h-0.971c-1.59-2.714,2.4-10.256,2.913-12.432,1.867-.941,3.975-3.089,5.828-3.825l15.541-1.913v-0.956h1.943v-0.956h3.885v-0.957h3.885v-0.956l8.742-.956q0.485-.957.971-1.913l5.828-1.913c0.8-1.793,1.439-2.5,1.942-4.781h1.943q0.486-2.391.971-4.782h1.943l1.942-6.694h1.943q0.486-2.391.971-4.781h1.943q0.486-2.391.971-4.782h1.943c0.518-5.777,4.617-8.931,6.8-13.388h2.914v-1.913H387.4q0.484,1.434.971,2.869h1.943c0.889,5.17,3.971,10.159,5.827,14.345l0.972,5.737h0.971V151.8h0.971l0.972,6.694H401V160.4c0.267,0.427,1.355.869,1.942,1.912h0.972q0.484-1.434.971-2.868h0.971v-1.913h0.972q0.485-2.391.971-4.782l1.942-.956v-2.869h0.972v-1.912h0.971v-2.869h0.971v-1.913l1.943-.956q0.486-2.869.971-5.738h0.972v-1.913l1.942-.956q0.486-2.391.971-4.782l1.943-.956v-2.869h0.971V121.2h0.972q0.485-1.912.971-3.825h0.971V114.5h0.972v-1.913l1.942-.956v-2.869h0.971v-1.912h0.972v-2.869h0.971v-1.913l1.943-.956V98.244h0.971V96.331H435V93.462h0.972V91.55l1.942-.956V87.724h0.971V85.812h0.972V82.943h0.971V81.03l1.943-.956c1.006-1.87.793-5.754,1.942-7.65l1.943-.956V68.6h0.971q0.486-1.912.971-3.825h0.972V61.9h0.971V59.991l1.943-.956c1.006-1.87.793-5.753,1.942-7.65l1.943-.956V47.559h0.971V45.647h0.971V42.778h0.972c1.684-3.282-.475-3.56,3.885-4.782,1.547-1.762,7.562-3.077,11.655-1.913V37.04h13.6s0.01,0.8,1.942.956h9.713v0.956c5.566,1.568,13.87-1.36,17.484,1.913C518.663,41.955,517.944,40.869,518.529,42.778Zm-55.364-1.913L459.28,52.341h-0.972v1.913l-1.942.956-0.972,5.738h-0.971q-0.486,1.913-.971,3.825h-0.971v1.913h-0.972v2.869l-1.942.956L448.6,75.292l-1.942.956v2.869h-0.971v2.869H444.71q-0.486,1.912-.971,3.825h-0.971v2.869l-1.943.956v2.869h-0.971l-0.972,3.825h-0.971V99.2l-1.942.956v2.869H435q-0.486,1.912-.971,3.826h-0.971v2.868l-1.943.957v2.869h-0.971l-0.972,3.825H428.2v2.869h-0.971v1.912l-1.943.957q-0.484,2.868-.971,5.738h-0.971v1.912l-1.943.957v2.868h-0.971l-0.972,3.826h-0.971v2.869h-0.971v1.912h-0.971V145.1h-0.972v1.913H414.6v2.868l-1.943.957q-1.942,5.737-3.885,11.475H406.83v0.957h31.081c1.122,1,6.049,1.625,7.771,1.912v2.869h0.971c1.106,1.089,0,.381,1.942.957v11.475l-2.913.957v3.825c-1.75.9-1.53,1.324-3.886,1.913v1.912h-2.914q-0.484,1.434-.971,2.869H436.94c-1.544,1.7-1.132,2.1-3.885,2.869-1.341,4.6-1.156.921-3.886,2.869v0.956c6.28,0.158,16.607,2.6,20.4-.956,1.82-1.593,3.65-4.611,4.856-6.694v-1.913l1.943-.956v-1.913h0.971v-2.869l1.943-.956V179.53h0.971q0.486-1.912.971-3.825h0.972v-1.913h0.971v-2.869l1.942-.956V167.1h0.972v-1.913l1.942-.956,0.972-5.738h0.971q0.486-1.912.971-3.825h0.972V151.8l1.942-.956v-2.869h0.971l0.972-3.825h0.971v-2.869l1.943-.957v-2.869h0.971q0.486-1.913.971-3.825h0.972v-2.869l1.942-.956v-2.869h0.971l0.972-3.825h0.971v-2.869l1.943-.956v-2.869h0.971q0.486-1.913.971-3.826h0.971v-2.869l1.943-.956v-2.869h0.971l0.972-3.825h0.971q0.486-2.391.971-4.782l1.943-.956q0.486-2.869.971-5.738h0.971V88.681l1.943-.956V84.855h0.971l0.972-3.825H505.9V78.161l1.943-.956V74.336h0.971q0.486-1.912.971-3.825h0.971V67.642l1.943-.956V63.817h0.971l0.972-3.825h0.971V57.122l1.943-.956q0.485-3.825.971-7.651h-0.971V45.647h-0.972q-0.486-1.434-.971-2.869l-47.594-3.825v0.956Zm-89.36,90.85q-0.484,1.434-.971,2.868h-0.971V136.5h-0.971v1.913l-1.943.956q-0.486,2.391-.971,4.782l-1.943.956q-0.486,1.912-.971,3.825l-1.943.956q-0.486,1.912-.971,3.826l-2.914,1.912q-0.486,2.391-.971,4.782l-1.943.956q-0.486,1.912-.971,3.825l-1.943.957v1.912h-0.971q-0.486,1.435-.971,2.869l-6.8,1.913-0.972,1.913-7.77.956c-4.966,1.686-11.2,3.2-16.512,4.781h-5.828v0.957H309.7V182.4c-3.232,1.531-3.728-.124-4.857,3.825h-0.971v2.869H302.9c-1.3,3.424-.155,4.247,0,8.607,1.2,0.612,1.386,1.562,1.942,1.913h1.943l5.828,4.781v1.913h0.971l1.943,2.869h1.942v0.956c3.01,1.791,4.821,1.946,5.828,5.738,3.3,0.841,2.977,1.78,2.914,5.738h-0.971q-0.972,5.737-1.943,11.475h-0.971V235h-0.972v2.869h-0.971v6.694c-2,6.053-5.034,12.743-5.828,20.083,2.6,2.171,1.759,3.577,6.8,3.825,1.122-1,6.049-1.625,7.771-1.913v-1.912l4.856-.957v-1.912l4.857-.957V258.9l4.856-.957v-1.912l4.857-.956v-1.913l4.856-.956V250.3l2.914-.956v-0.957h1.943v-0.956c4.354-1.581,10.25.781,12.627,1.913V250.3h2.913v0.956l5.828,1.913v0.956l3.885,0.957,0.972,1.912H387.4q0.484,0.957.971,1.913h3.885l0.971,1.912c2.855,1.2,7.567.086,9.713,0.957v-0.957l5.828-3.825v-25.82c3.195-3.623-1.158-12.275.971-17.214l1.943-.956q0.486-2.391.971-4.782H414.6l5.828-7.65,2.914-.956V197.7l1.942-.956,1.943-2.869h1.942l0.972-1.913h0.971c2.83-2.724,2.6-6.03,7.77-6.694v-1.913h1.943a8.625,8.625,0,0,1,1.943-3.825h0.971c2.268-3.671.755-8.787-1.943-10.519-3.691-3.548-22.844-3.56-31.081-2.869-1.861.156-5.027,2.213-7.771,0.956v-0.956c-1.906-1.281-2.208-2.167-4.856-2.869q-0.972-4.3-1.943-8.607h-0.971v-1.913H394.2v-3.825h-0.972q-0.484-1.913-.971-3.825h-0.971v-3.825h-0.971l-0.972-3.826h-0.971v-2.869H387.4v-1.912h-0.972q-0.485-1.434-.971-2.869h-7.77v0.956C376.278,131.54,376.035,131.418,373.805,131.715ZM682.678,228.3v1.912l2.914,0.957,0.971,1.912h0.972v2.869l1.942,0.957v10.519l-2.914,1.913v3.825l-3.885,2.869v0.956l-2.914.956c-0.925,1.353.006,2.744-.971,3.826l-4.857,2.869v2.869l-2.913,1.912v0.956l-2.914.957v2.869l-2.914,1.912v0.957l-2.914.956V280.9l-2.914,1.913v0.956l-2.914.956v2.869l-2.914,1.913v0.956l-2.914.956v2.869l-2.914,1.913v0.956l-2.913.956v2.869l-6.8,4.782v2.869l-2.913,1.913V311.5l-2.914.956v2.869l-2.914,1.913V318.2l-2.914.956v2.869l-2.914,1.913v0.956h-1.943c-2,1.669-.743,3.856-3.885,5.738,1.99,2.41,2.344.394,2.914,4.782,4.671,1.309,1,1.035,2.914,3.825l2.914,0.956c1.2,1.04.016,2.4,0.971,3.825h0.971c2.093,2.294,2.362.525,2.914,4.782,5.244,1.509,1.211,2.453,3.886,4.781L638,354.535V357.4l2.914,0.956c1.2,1.04.016,2.4,0.972,3.825h0.971c2.1,2.309,2.336.517,2.914,4.782,4.683,1.267,1.027,1.058,2.914,3.825l2.914,0.956q0.971,2.87,1.942,5.738h0.971c1.968,5.491-1.582,13.348-2.913,16.257h-0.972v5.738h-0.971q-0.486,1.912-.971,3.826h-0.972v2.869H646.74q-0.486,2.39-.971,4.781H644.8l-0.972,3.825h-0.971v2.869h-0.971v1.913h-0.972v2.869h-0.971v1.912H638.97v2.869H638q-0.485,1.912-.971,3.826h-0.971v2.868h-0.971v1.913h-0.972v2.869h-0.971q-0.486,1.912-.971,3.825H631.2v2.869h-0.971q-0.486,2.391-.971,4.782h-0.972v1.912h-0.971v2.869h-0.971v1.913l-1.943.956q-0.484,3.347-.971,6.694h-0.971l-0.972,3.826h-0.971v1.912h-0.971v2.869h-0.972v1.913H617.6V477.9H616.63q-0.486,2.389-.971,4.781h-0.972q-0.484,1.912-.971,3.826h-0.971v2.868h-0.972v1.913H610.8v2.869h-0.971l-0.972,3.825h-0.971v2.869h-0.971v1.913h-0.971v2.869h-0.972v1.912H604v2.869h-0.971v1.913H602.06q-0.485,2.391-.971,4.781l-2.914,1.913v1.913l-5.828,4.781h-1.942v0.957l-22.34,1.912v0.956h-6.8V530.5h-6.8v0.956H549.61v0.956H546.7v0.957h-7.77v0.956h-9.713v0.956h-5.828v0.957l-15.54.956v0.956H505.9V539.1h-7.77v0.956c-4.21,1.216-9.851-.52-12.627,1.913,1.432,1.263,5.3,10.991,5.827,13.388h1.943l3.885,10.519h0.972v2.869l1.942,0.956v2.869h0.971l0.972,3.826h0.971v2.869h0.971l0.972,3.825H505.9v2.869h0.971l0.972,3.825h0.971v2.869h0.971v1.913h0.971v2.868h0.972v1.913H512.7q0.486,2.87.971,5.738h0.972V607h0.971v2.869h0.971v1.912h0.972q0.485,2.87.971,5.738H519.5q0.486,2.868.971,5.738h0.972v1.912h0.971q2.913,10.041,5.828,20.083l16.512,0.956v0.957h11.655v0.956h10.685v0.956h11.655v0.957l22.34,0.956v0.956h11.656V652.9h10.684v0.957h11.656v0.956c2.275,0.644,6.753.587,8.741,0.956l0.972,2.869h1.942q2.913,11,5.828,22h0.971v3.826h0.971v2.869h0.972v3.825h0.971q0.972,6.215,1.943,12.432h-0.972q-0.485,2.391-.971,4.781h-0.971a7.763,7.763,0,0,0-1.943,3.826c-3.531.356-8.984,2.248-13.6,0.956V712.2H631.2v-0.957H619.544v-0.956H607.888v-0.956H597.2v-0.957l-34-1.912-0.972-1.913h-4.856c-5.245-.083-11.775.422-15.541-0.956v3.825c1.552,1.7,1.942,12.342,1.943,16.257,0,10.489-1.193,21.7-3.886,29.646v3.825h-0.971v1.913h-0.971v3.825L533.1,766.7q-0.485,1.436-.971,2.869c-3.286,2.459-3.8-1.459-4.857,4.782H57.163c-2.886-.855-5.084-2.473-8.742-2.869v-1.913H45.507v-1.912H42.593v-1.913c-3.125-.706-3.537-1.3-3.885-4.782-1.952-.548-0.84.115-1.943-0.956H35.794v-2.869l-1.943-.956L32.88,751.4H31.909v-4.781H30.937v-1.913H29.966c-1.434-4.118,1.136-11.074,1.943-13.388V727.5l2.914-1.913,0.971-4.782h1.943v-2.868h1.943v-2.869H40.65c1.107-1.089,0-.381,1.943-0.957v-2.869h1.943v-2.869h0.971c1.107-1.088,0-.381,1.943-0.956v-2.869h1.943v-2.869h0.971c1.107-1.089,0-.381,1.943-0.956V697.85h1.943v-2.869H55.22c1.107-1.089,0-.381,1.943-0.956v-2.869h1.943v-2.869h0.971c1.107-1.089,0-.381,1.943-0.956v-2.869h1.943v-2.869h0.971c1.107-1.089,0-.381,1.943-0.957,0.369-3.386,1.2-2.9,1.942-5.737h1.943V672.03h0.971c1.107-1.089,0-.381,1.943-0.957V668.2h1.943l1.943-6.694H79.5v-2.869h0.971c1.107-1.089,0-.381,1.943-0.956v-2.869h1.943v-2.869H85.33c1.107-1.089,0-.381,1.943-0.956,0.369-3.386,1.205-2.9,1.943-5.738h1.943v-2.869h0.971c1.107-1.089,0-.381,1.943-0.956v-2.869h1.943V635.69h0.971c1.107-1.089,0-.381,1.943-0.956v-2.869h1.943V629h0.971c1.107-1.089,0-.381,1.943-0.957V625.17h1.942V622.3H106.7c1.106-1.089,0-.381,1.942-0.957v-2.869h1.943v-2.869h0.971c1.107-1.089,0-.381,1.943-0.956v-2.869h1.942v-2.869h0.972c1.106-1.089,0-.381,1.942-0.956v-2.869H120.3v-2.869h1.942c1.143-5,3.39-4.454,5.828-7.65h0.971V591.7h1.943v-2.869h0.971c1.107-1.089,0-.381,1.943-0.957v-2.869h1.943v-2.868h0.971c1.106-1.089,0-.381,1.942-0.957,0.37-3.386,1.206-2.9,1.943-5.738h1.943v-2.869h0.971c1.107-1.088,0-.381,1.943-0.956v-2.869h1.942v-2.869h0.971c1.107-1.089,0-.381,1.943-0.956v-2.869h1.943v-2.869h0.971c1.107-1.089,0-.381,1.943-0.956V555.36h1.942v-2.869h0.971c1.107-1.089,0-.381,1.943-0.956v-2.869h1.943V545.8h0.971c1.107-1.089,0-.381,1.943-0.957v-2.868h1.942V539.1h0.971c1.107-1.089,0-.381,1.943-0.957v-2.869h1.943c0.369-3.386,1.2-2.9,1.942-5.738h1.943v-2.868h0.971c1.107-1.089,0-.381,1.943-0.957,0.369-3.386,1.205-2.9,1.942-5.738h1.943v-2.869h0.971c1.107-1.088,0-.381,1.943-0.956,0.369-3.386,1.205-2.9,1.942-5.738h1.943v-2.869h0.971c1.107-1.089,0-.381,1.943-0.956v-2.869h1.942V500.85h0.972c1.106-1.089,0-.381,1.942-0.956,0.369-3.386,1.205-2.9,1.943-5.738h1.943v-2.869h0.971c1.106-1.089,0-.381,1.942-0.956v-2.869h1.943v-2.869h0.971c1.107-1.089,0-.381,1.943-0.956,0.369-3.387,1.2-2.9,1.942-5.738h1.943V475.03h0.971c1.107-1.089,0-.381,1.943-0.956,0.369-3.387,1.2-2.9,1.943-5.738h1.942v-2.869h0.971c1.107-1.089,0-.381,1.943-0.957v-2.869h1.943v-2.868h1.942c0.64-2.808,1.209-3.213,2.914-4.782v-0.956l2.914-.957v-2.869h1.943v-2.868h0.971c1.107-1.089,0-.381,1.943-0.957v-2.869H238.8v-2.869h0.971c1.107-1.089,0-.381,1.943-0.956,0.369-3.386,1.2-2.9,1.943-5.738h1.942v-2.869h0.972c1.106-1.089,0-.381,1.942-0.956v-2.869h1.943v-2.869h0.971c1.107-1.089,0-.381,1.943-0.956v-2.869h1.942V416.7h0.971c1.107-1.089,0-.381,1.943-0.956V412.87h1.943V410h0.971c1.107-1.089,0-.381,1.943-0.957v-2.868h1.942v-2.869h0.971c1.107-1.089,0-.381,1.943-0.957v-2.869h1.943v-2.869h0.971c1.107-1.088,0-.381,1.943-0.956v-2.869h1.942v-2.869H275.7c1.107-1.089,0-.381,1.943-0.956,0.369-3.386,1.2-2.9,1.943-5.738h1.942v-2.869H282.5c1.106-1.089,0-.381,1.942-0.956V376.53h1.943v-2.869h0.971c1.107-1.089,0-.381,1.943-0.956,0.039-6.23,2.71-9.306,3.885-14.345h1.942v-2.869H296.1c1.994-2.341,2.754-.923,3.885-4.781l5.828-.957,0.971-1.912h3.885l0.971-1.913c4.126-1.645,7.72,1.6,10.685,1.913h4.856V348.8h1.943v0.956h3.885q0.486,0.957.971,1.913l4.857,0.956,0.971,1.913,4.857,0.956q0.485,0.957.971,1.913h1.942l0.972,1.912c2.992,1.981,4.609.572,5.828,4.782,3.579,0.311,4.088.782,4.856,3.825h2.914l2.914,4.782h1.942l5.828,4.781V379.4l6.8,5.738,0.972,1.912h1.942l3.885,4.782H387.4V394.7l7.77,5.738v2.869l2.914,0.956v0.956l1.943,0.957v2.868L402.944,410c1.157,0.987,1.532,3.03,1.943,4.781,2.988,0.752,3.271,1.851,4.856,3.826h0.972v2.868h0.971q0.972-4.3,1.943-8.606l1.942-.957v-2.869h0.972v-2.868h0.971v-1.913h0.971v-2.869l1.943-.956q0.484-2.87.971-5.738h0.971l0.972-4.782h0.971v-1.912h0.971v-2.869l1.943-.957q0.486-2.868.971-5.737h0.971V376.53h0.972v-2.869l1.942-.956v-2.869h0.972v-2.869h0.971v-1.913H435v-2.869h0.972v-1.912h0.971V357.4l1.942-.957,0.972-5.737h0.971l2.914-8.607h1.943q0.484-1.913.971-3.825h2.914v-1.913c2.241-.233,2.485-0.185,3.885-0.956v-0.957h6.8V333.5h6.8V332.54h1.943v-0.957h4.856v-0.956h12.627v-0.956H492.3v-0.957h3.885v-0.956h10.684V326.8h6.8l0.972-1.913h1.942V322.02l5.828-3.825v-2.869l5.828-3.825v-2.869l5.828-3.825v-2.869l3.885-1.913v-1.913l1.942-.956v-1.912l7.771-5.738v-1.913h0.971V285.68l1.943-.956q0.484-1.912.971-3.825l10.684-9.563v-1.913l2.914-1.912V265.6l11.656-10.519v-1.913l2.914-1.913v-1.912l2.913-1.913v-0.956l2.914-.957V243.6l1.943-.956v-1.913l6.8-4.782v-2.869l5.828-3.825v-2.869l5.828-3.825V219.7h0.971c2.362-2.856,4.791-3.206,5.828-7.65h2.914v-1.913l13.6-.956v0.956H631.2v0.956l5.828,0.957V213l5.828,0.956v0.957H644.8v0.956h2.913v0.956h2.914v0.956h2.914v0.957h2.914V219.7l3.885,0.956v0.957l6.8,0.956v0.956h1.943v0.957h2.914v0.956h1.942v0.956Zm-92.273,17.213h-1.943c-1.359,4.85-3.687,2.9-5.828,5.738v1.913l-2.913,1.913v1.912l-6.8,5.738-2.913,3.825-1.943.957v1.912l-2.914,1.913v1.912l-10.684,9.564q-0.486,1.911-.971,3.825l-1.943.956v1.913h-0.971v1.912l-7.771,5.738v2.869h-1.942c-0.665,2.8-1.081,3.132-3.886,3.825v2.869c-0.507.29-5.682,3.613-5.827,3.826v2.868l-1.943.957v0.956l-3.885,1.913v2.869l-2.914,1.912v0.957h-1.943q-0.971,2.389-1.942,4.781h-1.943v3.825h-1.942v0.957a26.358,26.358,0,0,0-3.886,4.781h-0.971v2.869h-1.942v2.869H505.9v0.956h-0.971v2.869l-2.914.957-1.943,2.869h-1.942v3.825l-2.914.956V357.4h-1.943c-1.115,2.949-.456,3.83-3.885,4.781V364.1l-2.914.956v2.869h-1.943l-1.942,2.869h-1.943v0.956h-0.971c-1.906,2.2,1.054,1.776-2.914,2.869-0.577,4.86-3.39,10.047,0,13.389a31.906,31.906,0,0,0,5.828,4.781h3.885v0.956l3.885,0.957v0.956h3.885l0.972,1.913,6.8,0.956q0.484,0.957.971,1.913H505.9v0.956h2.914v0.956h4.856l0.972,1.913h2.914v0.956l3.885,0.957v0.956h2.914v0.956c5.413,2.16,9.968,2.76,17.483,2.869,1.1-4.4,5.246-5.428,7.77-8.607h0.972c1.929-3.062-1.619-3.334,3.885-4.781,0.476-1.921,2.579-5.72,3.885-6.694h1.943q0.485-.957.971-1.913h0.971v-2.869l5.828-3.825V379.4l5.828-3.825v-2.869l5.828-3.826V366.01l4.856-2.868c2.87-2.98.832-6.1,6.8-7.651v-2.869l6.8-4.781v-2.869l4.857-2.869q0.484-1.913.971-3.825l4.856-2.869,0.972-3.826H610.8l1.943-2.869c1.187-.813,4.02-0.713,4.856-1.912v-2.869l5.828-3.825v-2.869l1.943-.957v-0.956h1.942q0.486-.956.971-1.913h0.972v-2.868l5.828-3.826V303.85q3.4-2.389,6.8-4.781V296.2l5.827-3.825v-2.869l5.828-3.826v-2.868l5.828-3.826v-2.869l5.828-3.825v-2.869l5.828-3.825v-2.869l5.827-3.825v-2.869h0.972q0.484-.957.971-1.913h1.943c2.343-1.727,3.224-5.208,3.885-8.607h1.942v-6.694l-1.942-.956V235l-2.914-.956-1.943-2.869H676.85v-0.957h-1.942v-0.956l-8.742-1.912v-0.957h-1.943v-0.956l-5.827-.956V223.52h-2.914v-0.956h-1.943v-0.956h-2.914v-0.957l-8.741-1.912v-0.957h-1.943v-0.956l-8.742-1.912v-0.957h-1.942V213h-2.914v-0.956l-7.771.956c-1.508,2.287-2.772,1.492-3.885,2.869v1.912h-0.971q-0.971,1.435-1.943,2.869l-2.914.957v2.869l-2.913,1.912v0.957l-2.914.956v2.869l-2.914,1.912v0.957L597.2,235v2.869h-0.971l-1.943,2.869h-1.943v0.956C590.714,243.2,590.837,242.474,590.405,245.515ZM394.2,484.593h1.942c0.621,4.28.8,2.443,2.914,4.781h0.972v2.869H401c2.144,2.364,2.241.494,2.914,4.782h1.942c0.4,1.748.791,3.8,1.943,4.781l2.914,0.957v2.869h0.971c2.142,2.36,2.248.5,2.914,4.781,4.671,1.309,1,1.036,2.914,3.826l2.914,0.956c1.2,1.04.016,2.4,0.971,3.825h0.971c2.093,2.294,2.362.525,2.914,4.782h1.943v1.912h1.942v2.869c4.616,1.489.9,0.93,2.914,3.825L435,533.365c1.209,1.049.025,2.364,0.972,3.825,0.615,0.95,9.276,5.562,10.684,5.738h0.971v-0.956h9.713l0.971-1.913,5.828,0.956v-0.956h6.8V539.1h7.771c0.9-.369.051-2.621,3.885-1.913v0.956c3.195,0.759,10.476-1.295,12.627-1.912h8.741v-0.957H505.9v-0.956h4.856v-0.956H519.5a54.307,54.307,0,0,0,7.77-1.913h9.713V530.5h7.771v-0.957h2.914v-0.956h4.856c5.894-1.791,14.463-2.129,20.4-3.825h9.713c3.493-1.027,7.442-2.5,10.685-3.825,0.65-1.264,1.506-1.275,1.942-1.913v-1.913l2.914-1.912v-2.869h0.972v-2.869h0.971v-1.913h0.971v-2.869h0.971v-1.912h0.972v-2.869H604v-1.913h0.971v-2.869l1.943-.956q0.486-2.868.971-5.738h0.971v-1.912h0.972v-2.869l1.942-.957,0.972-5.738h0.971q0.486-1.913.971-3.825h0.972v-2.869h0.971v-2.869l1.942-.956v-2.869l1.943-.956q0.486-3.346.971-6.694h0.972q0.484-1.912.971-3.826H624.4v-2.869h0.972q0.485-1.912.971-3.825h0.971q0.486-2.868.971-5.738l1.943-.956q0.486-2.868.971-5.738h0.972V431.04h0.971v-2.869l1.943-.957q0.485-2.868.971-5.738h0.971q0.486-2.389.971-4.781h0.972v-1.913h0.971v-2.869l1.943-.956q0.485-2.868.971-5.738h0.971v-1.912H644.8v-2.869l1.942-.957q0.486-3.825.971-7.65h0.972q0.971-2.87,1.942-5.738H651.6c1.389-3.84-1.625-8.092-1.943-11.476-3.125-.706-3.537-1.3-3.885-4.781l-2.914-.957V366.01c-3.125-.7-3.537-1.3-3.885-4.781-3.125-.706-3.537-1.3-3.885-4.782-3.125-.7-3.537-1.3-3.886-4.781l-2.914-.956v-2.869c-3.124-.706-3.536-1.3-3.885-4.782-3.124-.706-3.537-1.3-3.885-4.781l-2.914-.957v-2.869l-3.885-.956q-0.486,1.434-.971,2.869h-0.972c-1.743,1.933-1.8,2.976-4.856,3.825v2.869c-0.508.29-5.683,3.613-5.828,3.825v2.869l-6.8,4.782V357.4l-5.828,4.781V364.1l-2.914,1.912v0.957l-2.914.956v2.869l-2.913,1.913v0.956l-2.914.956v2.869l-2.914,1.913v0.956l-2.914.956v2.869l-2.914,1.913v0.956l-2.914.957v2.869l-2.914,1.912v0.956h-1.942c-1.243,1.038-.036,2.332-0.972,3.826l-3.885,2.869v0.956H553.5v2.869c-3.757,2.057-7.834,5.561-9.713,9.563-7.671.869-11.025,0.642-17.484-1.913h-2.914v-0.956h-1.942V410h-2.914v-0.957h-1.943v-0.956l-5.828-1.912v-0.957l-10.684-1.912V402.35h-1.942v-0.956l-5.828-.956v-0.957h-1.943v-0.956l-5.828-.956v-0.957h-1.942v-0.956h-2.914V394.7c-2.708-1.411-4.143-2.552-6.8-3.825q-0.486-2.391-.971-4.782h-0.972c-3.144-9.13,6.036-19.71,11.656-21.039v-2.869l5.828-3.825c0.932-1.462-.1-2.713.971-3.825l4.856-2.869V348.8l6.8-4.782v-2.869h0.972l0.971-1.912h1.943c1.417-1.073,2.147-5.25,2.914-5.738h1.942q0.486-1.912.971-3.825h-1.942v0.956H498.132v0.956h-3.886v0.957h-5.827V333.5l-17.484.956v0.957h-1.942v0.956h-6.8v0.956h-5.828v0.957h-1.943v0.956h-1.942l-0.972,1.912h-1.942l-0.972,2.869-1.942.957v1.912h-0.971V348.8H444.71v2.869h-0.971v1.912h-0.971v2.869H441.8v1.913h-0.971q-0.486,1.912-.971,3.825h-0.972q-0.484,2.87-.971,5.738H436.94v1.913h-0.971v2.869H435q-0.486,1.913-.971,3.825h-0.971q-1.458,4.781-2.914,9.563h-0.972v1.913H428.2v2.869h-0.971v1.912h-0.971l-0.972,4.782h-0.971v2.869h-0.971l-0.972,3.825H421.4v2.869h-0.971v1.912h-0.972v2.869h-0.971v1.913h-0.971v1.913l-1.943.956q-0.485,3.346-.971,6.694h-0.971V425.3h-0.972q-0.484,2.868-.971,5.738h-0.971v1.912h-0.972v2.869h-0.971q-0.486,1.912-.971,3.825H406.83l-0.972,5.738h-0.971q-0.486,1.912-.971,3.825h-0.972v2.869h-0.971v1.913H401q-0.486,2.868-.971,5.738h-0.972q-0.486,1.913-.971,3.825h-0.971v2.869h-0.972v1.913h-0.971v2.869H394.2v1.912h-0.972ZM313.585,348.8v1.913c-7.754.274-10.032,5.14-15.541,6.694-0.324,2.148-.086,2.5-0.971,3.825H296.1v1.913H295.13v1.912h-0.971v2.869h-0.971v2.869h-0.972v6.694h-0.971v2.869h-0.971V394.7c0,11.156.182,20.569,2.914,28.689v3.825h0.971v2.869h0.971v2.869H296.1v5.738h0.971v3.825h0.971V447.3h0.972v3.825h0.971v3.825h0.971v2.869h0.971v5.738H302.9v1.913h0.971q0.486,3.825.971,7.65h0.972v1.913h0.971q0.486,2.868.971,5.738h0.972v2.869H309.7v2.869h0.971v2.868h0.971v2.869h0.972q0.485,3.348.971,6.695h0.971l0.972,3.825H316.5q0.486,3.347.971,6.694h0.972q0.484,1.913.971,3.825h0.971v2.869h0.971l0.972,3.825H323.3v2.869h0.971v2.869h0.972v2.869h0.971v2.869h0.971v2.869l1.943,0.956v1.913H330.1V539.1h0.971v2.869h0.972v1.912h0.971q0.486,1.912.971,3.825h0.972v2.869h0.971q0.486,1.912.971,3.826h0.971v2.868l1.943,0.957V561.1h0.971v1.912h0.972q0.485,1.912.971,3.826H343.7v1.912h0.972v1.913h0.971v1.912h0.971v1.913h0.971V576.4h0.972q0.484,2.389.971,4.781l1.943,0.957v1.912h0.971v1.913h0.971v1.912h0.972v1.913c2.756,5.078,6.362,9.755,7.77,16.257h1.943c0.892,4.3,3.3,5.742,3.885,10.52h1.942q0.972,3.346,1.943,6.694h1.942l0.972,4.781h1.942q0.972,3.348,1.943,6.7h1.943c0.664,3.259,2.164,4.411,2.913,7.65h1.943c0.664,3.26,2.164,4.411,2.914,7.651h1.943c0.664,3.259,2.164,4.411,2.913,7.65h1.943v2.869h1.943v2.869h1.942v2.869H401q0.97,2.868,1.942,5.738h1.943V674.9l2.914,0.956v2.869h1.942v2.869l2.914,0.956v2.869H414.6v2.869l2.914,0.956v2.869c4.675,1.294,1.011,1.047,2.914,3.825l2.914,0.957c1.136,0.97,1.572,3.038,1.942,4.781h1.943v2.869l4.856,2.869v2.869l4.857,2.869v2.869l5.828,3.825v2.869l3.885,2.869q0.486,0.956.971,1.913l2.914,0.956q2.428,2.868,4.856,5.738h0.972v2.869h1.942l1.943,2.869h1.943l2.913,3.825,1.943,0.956v1.913h0.971l1.943,2.869h2.914v0.956l1.942,0.956v1.913h0.972v0.956c2.826,1.935,2.5-1.713,3.885,2.869h2.914V758.1c1.106,1.089.387,0,.971,1.912,2.987,0.357,3.065.652,4.857,1.913v0.956h2.913l0.972,1.913h1.942l0.972,1.912h2.914v0.957l3.885,0.956v0.956c5.952,2.342,14.285,1.81,22.34,1.913,0.788-3.256,2.478-4.129,5.827-4.782,0.8-2.932,2.332-3.621,3.886-5.738h0.971v-3.825h0.971v-1.912h0.971V751.4h0.972v-4.781h0.971V741.84H539.9V730.365h0.972V717.933H539.9q-0.485-6.694-.971-13.389l-4.856-.956v-1.913l-5.828.957v-0.957H527.27v0.957h-3.885v-1.913H519.5a11.977,11.977,0,0,0-.971,4.781H519.5v3.826h0.971v12.432c3.182,11.493-1.054,22.383-2.913,31.558L504.931,751.4v-0.956c-1.837-1.265-1.862-1.475-4.857-1.913v-1.912H497.16v-1.913h-2.914v-0.956c-1.106-1.09-.387,0-0.971-1.913h-2.914l-2.914-4.781h-2.914l-1.942-2.869-1.943-.957-0.971-2.868q-3.885-3.348-7.77-6.7l-2.914-3.825H467.05l-0.971-1.912-5.828-4.782v-2.869l-2.914-.956v-0.957l-2.914-1.912v-2.869c-1.9-2.811-3.945.645-4.856-5.738-3.125-.706-3.537-1.3-3.885-4.782-2.45-.583-1.6-0.519-2.914-1.912H441.8v-1.913h-0.971c-1.326-1.642-1.636-1.914-1.943-4.781l-2.913-.957v-2.869l-2.914-.956v-2.869h-1.943q-0.486-1.434-.971-2.869l-1.943-.956v-1.913l-1.942-.956v-2.869c-4.559-1.457-6.244-7.788-8.742-11.476l-1.943-.956V652.9l-1.942-.956v-1.912l-1.943-.957q-0.486-1.434-.971-2.869h-0.972V643.34l-2.913-1.912v-1.913l-1.943-.956V635.69l-2.914-1.913q-0.486-1.434-.971-2.869h-0.971v-2.869l-2.914-1.912v-2.869l-2.914-1.913-0.972-4.781-2.913-1.913-0.972-4.781q-1.457-.957-2.914-1.913-0.485-2.391-.971-4.782l-2.914-1.912V599.35h-0.971v-1.913h-0.971v-1.912h-0.972v-1.913h-0.971V591.7l-1.943-.957q-0.97-2.868-1.942-5.738h-0.972v-1.912h-0.971V581.18h-0.971v-1.912h-0.971v-1.913H369.92v-1.913h-0.971v-2.869l-1.943-.956v-2.869l-1.942-.956v-1.913h-0.971V563.01l-1.943-.956v-2.869l-1.943-.956V555.36h-0.971v-1.913h-0.971v-2.869l-1.943-.956c-1.15-1.895-.936-5.779-1.942-7.65l-1.943-.957V539.1h-0.971l-0.972-5.738-1.942-.957-0.972-5.737-1.942-.957v-2.869h-0.971v-1.912H343.7v-2.869h-0.971q-0.486-1.913-.971-3.825h-0.972V511.37H339.81V508.5h-0.971v-2.869h-0.972v-2.869H336.9V500.85h-0.971v-2.869h-0.971v-2.869h-0.972v-2.869h-0.971v-2.869H332.04v-2.868h-0.972v-2.869H330.1v-2.869h-0.971V477.9h-0.972v-1.913h-0.971q-0.971-4.3-1.942-8.607h-0.972q-1.457-8.127-2.914-16.257h-0.971q-0.486-4.3-.971-8.607h-0.971V438.69H317.47v-3.825H316.5v-4.782h-0.971v-3.825h-0.972v-3.825h-0.971V412.87h-0.971q-0.486-16.734-.972-33.471c0.962-3.279,1.9-5.739,1.943-10.52,5.411-.165,9.248.153,12.627,1.913v0.956h1.942v0.957H330.1v0.956h2.914q0.486,0.955.971,1.913h1.943l0.971,1.912c3.114,2.06,5.709,1.569,6.8,5.738h2.914l5.828,7.651h2.914l0.971,1.912h0.971V394.7l1.943,0.956,1.943,2.869h1.942v0.956l3.885,2.869v2.869l1.943,0.957v0.956l6.8,4.781v2.869l5.828,3.826v2.868l2.914,0.957c1.194,1.036.013,2.417,0.971,3.825l2.914,0.956c1.2,1.038.014,2.411,0.971,3.826h0.972c2.135,2.35,2.264.5,2.913,4.781,5.145,1.287,3.608,3.248,5.828,6.694,0.335,0.52,1.327.764,1.943,1.913h0.971c1.468-7.991,6.4-12.068,6.8-21.039H407.8V420.52H406.83c-2.453-3.038-4.792-3.065-5.828-7.65-5.717-1.561-2.159-3.459-4.857-5.738H394.2l-0.972-1.913H392.26V402.35l-7.77-5.738v-2.869q-6.8-5.736-13.6-11.475c-1.393-1.514-2.121-4.536-3.886-5.738l-3.885-.956q-1.457-2.391-2.914-4.782h-2.914l-1.942-3.825c-2.88-1.939-2.459,1.7-3.885-2.869h-2.914v-1.913l-5.828-1.912V358.36l-6.8-1.913-0.971-1.912-4.857-.957v-0.956Zm31.082,164.485h1.942q0.972,4.3,1.943,8.607l1.942,0.956v1.913h0.972v1.913h0.971v2.868h0.971l0.972,3.826h0.971l2.914,8.607h0.971v2.868h0.971a16.962,16.962,0,0,1,1.943,7.651h1.943c0.54,5.481,3.467,6.5,3.885,12.432h1.942q5.341,11.952,10.685,23.908h1.942c0.259,3.657,1.767,4.412,2.914,6.694v2.869h0.971c1.107,1.089,0,.381,1.943.956q0.486,2.87.971,5.738h0.972c1.106,1.089,0,.381,1.942.956q0.486,2.87.971,5.738H394.2c1.106,1.089,0,.381,1.942.956l0.972,5.738h0.971c1.107,1.089,0,.381,1.943.957q0.484,2.389.971,4.781h1.942L403.916,629h1.942v2.869H407.8c0.189,2.17.132,2.518,0.971,3.825h0.971v2.869h0.972c1.106,1.089,0,.381,1.942.956,0.189,2.171.132,2.519,0.972,3.825H414.6v2.869h0.971c1.107,1.089,0,.381,1.943.957v2.869h1.942V652.9H421.4v2.869h1.943q0.485,2.391.971,4.782h0.971c1.107,1.089,0,.381,1.943.956v2.869H428.2c1.107,1.089,0,.381,1.943.956q0.484,2.391.971,4.782h0.971c1.107,1.089,0,.381,1.943.956v2.869H435c1.107,1.089,0,.381,1.943.957v2.869h0.971c1.107,1.088,0,.38,1.943.956v2.869h0.971c1.107,1.089,0,.381,1.943.956v2.869h1.942c0.6,3.318,1.6,4.943,4.857,5.738v3.825l3.885,0.956v3.826c3.781,0.642,4.745,1.308,4.856,5.737h1.943l0.971,1.913,2.914,0.956v2.869l3.885,2.869v1.913c1.044,1.222,2.4.026,3.886,0.956l2.913,4.782,8.742,6.694v1.913h0.971a7.441,7.441,0,0,1,1.943,3.825h3.885q0.486,1.434.971,2.869c1.106,1.089.387,0,.972,1.912h3.885q0.486,1.436.971,2.869h2.914q0.486,0.957.971,1.913h1.943q0.486,0.955.971,1.913H505.9l1.943,2.868H512.7v0.957h2.914q1.457-8.607,2.914-17.214-0.486-2.391-.971-4.781V712.2h-0.972v-2.869h-0.971v-8.607a128.559,128.559,0,0,1-24.283-1.913q-0.484-1.434-.971-2.869h-1.942c-1.136-6.291-3.92-11.927-5.828-17.213q-0.972-6.216-1.943-12.432h-0.971c-1.123-2.974-4.628-13.623-2.914-18.17h0.971v-1.913h0.972a7.808,7.808,0,0,0,1.942-3.825l19.426,0.956v-0.956H499.1q-0.486-2.391-.971-4.782H497.16v-4.781h-0.971v-1.913h-0.971q-0.972-4.78-1.943-9.563l-1.943-.956V617.52h-0.971v-1.913H489.39q-0.486-3.346-.971-6.694l-1.943-.956v-3.825h-0.971v-1.913l-1.943-.956q-0.971-4.3-1.942-8.607h-0.972v-1.913l-1.942-.956-0.972-5.738h-0.971v-1.912h-0.971v-1.913l-1.943-.956V576.4h-0.971v-1.913h-0.971v-2.869l-1.943-.956q-0.486-2.391-.971-4.782h-0.972v-1.912H467.05q-0.486-1.913-.971-3.826h-0.972v-2.869h-0.971q-0.486-1.911-.971-3.825h-0.971v-2.869h-0.972v-1.912h-0.971q-0.486-1.436-.971-2.869h-5.828v0.956l-12.627-.956c-2.745-3.916-6.958-2.231-7.77-8.607-3.125-.706-3.537-1.3-3.886-4.782h-1.942v-0.956a26.387,26.387,0,0,1-3.885-4.781H422.37V523.8c-3.124-.706-3.537-1.3-3.885-4.782-2.442-.6-1.594-0.509-2.914-1.913H414.6V515.2h-0.971a10.711,10.711,0,0,1-1.943-4.782c-3.125-.7-3.537-1.3-3.885-4.781-3.125-.706-3.537-1.3-3.885-4.782L401,499.894v-2.869c-3.125-.706-3.537-1.3-3.885-4.782l-2.914-.956-0.972-2.869-1.942-.956v-2.869h-0.971V482.68h-0.972c-1.317-3.7.846-14.45,1.943-16.257l1.942-.956c1.221-2.016-.076-4.129.972-6.694h0.971V456.86l1.943-.956c1.436-2.337,1.8-5.972,1.942-9.563-2.98-.907-2.831-1.153-3.885-3.826V440.6l-2.914-.957c-2.875-2.222-.942-4.389-5.828-5.738V431.04c-1.749-.9-1.529-1.325-3.885-1.913v-2.869c-1.749-.9-1.529-1.324-3.885-1.913V420.52h-2.914v-1.912c-5.228-1.572-1.067-3.336-3.885-5.738H369.92q-0.97-1.435-1.942-2.869h-1.943v-0.957l-1.942-.956v-3.825l-2.914-.956q-1.458-1.913-2.914-3.826h-1.943l-0.971-1.912H354.38v-1.913h-0.972V394.7c-2.842-1.943-2.479,1.708-3.885-2.869H347.58c-0.625-2.619-1.271-2.177-1.942-4.782h-3.885l-0.972-3.825H336.9v-1.913h-2.914V379.4h-2.914q-0.484-1.434-.971-2.869c-5.231-.486-6.445-3.188-11.655-3.825-0.82,1.085.123,0.139-.972,0.956q-0.486,3.825-.971,7.65h-0.971v1.913h-0.972c-1.594,4.559,1.089,14.283,1.943,17.214V410h0.971V420.52h0.972q0.971,6.216,1.942,12.432h0.971l0.972,8.607H323.3v3.825h0.971v3.825h0.972v4.782h0.971v3.825h0.971v3.825h0.971v3.826h0.972v2.869H330.1v3.825h0.971l0.972,3.825h0.971v2.869h0.971v2.869h0.972v2.869h0.971v2.869H336.9v2.869h0.971V493.2h0.972q0.486,2.868.971,5.738C341.716,503.25,344.236,507.152,344.667,513.282Zm-59.25-131.014v3.825l-2.913.956c-1.127,4.1-3.5,3.272-3.886,8.607h-1.942c-0.7,2.642-.271,2.139-2.914,2.869v3.825h-1.943c-0.7,2.642-.271,2.14-2.914,2.869v3.825h-1.942c-0.7,2.642-.271,2.14-2.914,2.869v3.826h-1.943c-0.7,2.641-.271,2.139-2.914,2.869v3.825H257.25c-0.7,2.641-.271,2.139-2.914,2.869v3.825h-1.943c-0.935,3.213-1.164,1.849-2.914,3.825h-0.971v2.869h-0.971q-0.486,1.912-.971,3.825h-1.943v1.913H242.68v3.825h-1.942c-0.7,2.642-.271,2.14-2.914,2.869-0.97,3.83-3.278,4.2-3.885,8.607H232q0.972,11.475,1.943,22.951h0.971v1.913h0.971v7.65h0.972v5.738h0.971v5.738H238.8v4.782h0.971v3.825h0.972v6.694h0.971v2.869h0.971l0.972,7.651h0.971V530.5h0.971v3.825h0.972v3.825h0.971v2.869h0.971v3.825h0.971v2.869h0.972v4.782h0.971V554.4h0.971q0.972,4.3,1.943,8.606h0.971v2.869h0.971v2.869h0.972v2.869h0.971v1.913h0.971l0.972,5.738h0.971v1.912h0.971l0.972,5.738h0.971q0.486,1.913.971,3.825h0.971v2.869h0.972v1.913h0.971v2.869H268.9v1.912h0.972q0.484,1.912.971,3.826h0.971V607h0.972v1.912h0.971v2.869l1.942,0.956v1.913h0.972v1.913h0.971v2.869h0.971q1.458,4.3,2.914,8.606h1.943l6.8,16.258h1.942q0.972,3.346,1.943,6.694H296.1q0.485,2.391.971,4.781h1.943q0.484,2.391.971,4.782h1.942l0.972,4.781h1.942c0.842,3.356,2.426,3.581,2.914,7.651H309.7q0.97,2.868,1.942,5.738h1.943v2.869l2.914,0.956v2.869h1.943c0.747,3.075,1.464,2.061,1.942,5.738l2.914,0.956v2.869l2.914,0.956v2.869l2.914,0.957v2.869h1.942q0.972,2.39,1.943,4.781l2.914,0.956v2.869l3.885,1.913v2.869l5.828,3.825v2.869l5.828,3.825v2.869h0.971l3.885,4.782h1.943q2.427,2.868,4.856,5.738h0.972V742.8l2.913,1.912v0.957h1.943l4.856,5.737h0.972v1.913h2.914l4.856,6.694,2.914,0.956,3.885,4.782h1.943l1.942,2.869H394.2v2.869H497.16V770.53l-7.77-2.869v-1.913l-4.857-.956v-1.913H481.62v-0.956c-1.106-1.09-.387,0-0.972-1.913h-2.914v-0.956c-1.106-1.09-.387,0-0.971-1.913h-2.914l-2.914-4.781h-2.914q-1.457-1.913-2.914-3.826h-0.971v-1.912l-3.885-2.869V742.8h-1.943q-0.971-1.436-1.942-2.869h-1.943l-1.942-4.782-11.656-9.563q-0.97-2.391-1.943-4.782H436.94v-0.956l-2.914-1.912v-2.869l-3.885-1.913c-1.034-1.082-.034-2.45-0.972-3.825l-2.913-.957v-0.956l-1.943-.956v-1.913l-1.943-.956q-0.484-1.912-.971-3.825c-3.125-.706-3.537-1.3-3.885-4.782l-2.914-.956v-2.869c-3.931-.985-1.227-0.424-2.914-2.869h-0.971c-0.89-1.259-.765-1.693-0.972-3.825-3.931-.985-1.227-0.424-2.913-2.869h-0.972c-0.889-1.259-.765-1.693-0.971-3.825-4.56-1.459-6.242-7.787-8.742-11.476l-1.942-.957v-1.912l-1.943-.956v-1.913l-1.942-.956v-1.913l-1.943-.956V653.86l-2.914-1.913q-0.486-1.434-.971-2.869h-0.972v-2.869l-2.913-1.912-0.972-2.869h-0.971v-2.869l-2.914-1.913q-0.486-2.391-.971-4.781l-2.914-1.913v-2.869l-2.914-1.913q-0.486-2.389-.971-4.781l-2.914-1.913v-1.912h-0.971v-1.913h-0.972v-1.913H362.15v-1.912h-0.971v-1.913l-1.943-.956v-1.913h-0.971v-2.869l-1.943-.956q-0.486-1.913-.971-3.825H354.38v-1.913h-0.972v-1.912h-0.971v-1.913h-0.971v-2.869l-1.943-.956v-2.869l-1.943-.957q-0.484-2.389-.971-4.781l-1.942-.956v-1.913H343.7v-1.913h-0.971V573.53h-0.971v-1.913h-0.972q-0.484-2.391-.971-4.781l-1.943-.957v-1.912H336.9V561.1h-0.971v-1.913h-0.971v-2.869l-1.943-.956v-1.913H332.04l-0.972-5.738-1.942-.956c-1.15-1.9-.936-5.778-1.943-7.65l-1.942-.957-0.972-4.781H323.3V530.5h-0.971v-2.869h-0.972v-2.869h-0.971v-2.869l-1.942-.956V519.02H317.47v-2.869H316.5v-1.912h-0.971V511.37h-0.972v-3.826h-0.971q-0.486-1.912-.971-3.825h-0.972q-0.484-3.346-.971-6.694H309.7v-1.913h-0.971l-0.972-5.738h-0.971v-2.868h-0.971v-2.869h-0.972v-2.869h-0.971V477.9H302.9V475.03h-0.972v-4.782h-0.971v-1.912h-0.971q-0.486-4.3-.971-8.607h-0.972v-1.913h-0.971v-3.825H296.1v-3.825H295.13v-4.782h-0.971v-3.825h-0.971v-6.694h-0.972V432h-0.971v-2.869h-0.971V425.3H289.3V420.52h-0.972v-6.694H287.36V382.268h-1.943Zm-63.134,85.111v2.869l-2.914,1.913c-0.78,1.078-.772,4.074-1.942,4.781h-1.943v2.869l-2.914,1.913c-0.78,1.078-.772,4.074-1.943,4.782h-1.942v2.868c-2.915,1.887-.914,2.7-4.857,3.826v2.869l-2.913,1.912c-0.781,1.078-.773,4.074-1.943,4.782h-1.943v2.869c-2.914,1.887-.914,2.7-4.856,3.825v2.869l-2.914,1.913c-0.78,1.077-.772,4.074-1.943,4.781h-1.942v2.869L182.46,523.8c-0.781,1.078-.772,4.074-1.943,4.781h-1.942c-0.278,2.84-.608,3.187-1.943,4.782h-0.971v1.912h-0.972l0.972,3.826h0.971v4.781l1.943,0.956v2.869h0.971q0.486,4.782.971,9.563h0.972v2.869h0.971v2.869h0.971v2.869H184.4v2.869h0.972v2.869h0.971v2.869h0.971v2.869h0.972q2.427,8.605,4.856,17.214l17.483,41.121H211.6q0.486,1.912.971,3.825h0.971v1.913h0.972v1.912h0.971v1.913h0.971v1.913h0.972v1.912H218.4q0.97,2.87,1.942,5.738l1.943,0.956q0.486,1.913.971,3.826l1.943,0.956q0.97,2.868,1.943,5.738c2.345,4.315,6.079,8.482,6.8,14.344h1.942l2.914,8.607h1.943q0.485,2.391.971,4.782h1.943q0.485,2.39.971,4.781h1.943q0.484,2.391.971,4.782h1.942v2.869h1.943q0.486,2.389.971,4.781h1.943v2.869h1.942v2.869h1.943q0.972,2.87,1.943,5.738h1.942v2.869h1.943v2.869l2.914,0.956v2.869H268.9v2.869l2.914,0.956v2.869l2.914,0.957V742.8l2.914,0.956v2.869l2.914,0.956v2.869H282.5v1.913h1.942v2.869l3.885,1.912c0.967,1.367-.235,2.815.972,3.825h1.942l0.971,1.913h0.972v2.869L296.1,766.7q0.971,1.436,1.942,2.869h91.3v-0.956c-3.177-.846-4.591-2.957-6.8-4.782v-0.956h-1.942l-1.943-2.869-1.943-.956q-0.484-1.434-.971-2.869h-2.914l-1.942-3.825-9.713-7.651V741.84l-2.914-1.912-0.972-1.913-2.913-.956-4.857-5.738h-0.971v-2.869l-3.885-1.913v-0.956l-1.943-.956v-2.869c-0.134-.2-5.336-3.547-5.828-3.825v-2.869c-3.124-.706-3.537-1.3-3.885-4.782-3.125-.706-3.537-1.3-3.885-4.782l-2.914-.956v-2.869l-2.914-.956V697.85l-2.914-.956v-2.869c-3.835-1.018-1.277-.326-2.914-2.869H316.5v-1.913h-0.971c-1.312-1.68-1.623-1.889-1.943-4.781-3.919-1.255-1.054-.324-2.914-2.869l-1.942-.957v-1.912l-1.943-.956v-1.913l-1.943-.956V672.03h-0.971q-0.486-1.436-.971-2.869l-2.914-1.913v-2.869l-2.914-1.912V659.6l-2.914-1.913v-2.869l-2.914-1.913q-0.486-2.39-.971-4.781l-2.914-1.913-3.885-10.519H282.5v-1.913h-0.972v-1.912q-1.457-.957-2.914-1.913v-2.869l-1.942-.956v-2.869l-1.943-.956v-2.869h-0.971V617.52h-0.971l-0.972-3.825h-0.971v-2.869l-1.943-.956V607h-0.971v-1.913h-0.971v-2.869l-1.943-.956v-2.869h-0.971v-1.913h-0.971l-0.972-4.781h-0.971v-2.869h-0.971v-1.913h-0.972q-0.971-4.3-1.942-8.607h-0.972q-0.485-1.913-.971-3.825h-0.971v-3.825h-0.971v-1.913h-0.972q-0.484-2.868-.971-5.738h-0.971v-2.869h-0.972v-2.869h-0.971V554.4h-0.971v-4.782h-0.971v-1.913h-0.972v-3.825h-0.971v-2.869h-0.971V537.19H242.68v-3.825h-0.971v-3.826h-0.971v-3.825h-0.972q-0.484-3.825-.971-7.65h-0.971V511.37h-0.971V508.5h-0.972v-5.738H234.91v-4.782h-0.971v-6.694h-0.972v-7.65H232v-1.913h-0.971q-0.972-10.518-1.943-21.039h-0.971v0.956C225.735,463.669,225.87,466.364,222.283,467.379Zm531.3,66.942q0.486,1.913.971,3.825c2.683,0.692,2.173.267,2.914,2.869h0.971l0.972,3.825h0.971v2.869h0.971v1.913h0.972v2.869H763.3V554.4h0.971q0.486,2.868.971,5.737h0.972v1.913h0.971q0.486,2.868.971,5.738h0.972V569.7H770.1v2.869h0.971v1.913h0.971l0.972,5.738h0.971v1.913h0.971v2.868h0.972v1.913h0.971q0.486,2.87.971,5.738h0.972q0.485,2.391.971,4.781h0.971v1.913h0.971v2.869h0.972q0.485,2.868.971,5.738h0.971l0.972,3.825h0.971v2.869h0.971v1.913h0.972q0.485,2.868.971,5.738h0.971v1.912h0.971v2.869h0.972V629h0.971v2.869h0.971l0.972,4.781h0.971v1.913h0.971v2.869h0.972v1.912h0.971q0.486,2.87.971,5.738h0.971v1.913h0.972q0.97,4.3,1.942,8.607h0.972v2.869h0.971v2.868H807v1.913h0.971v2.869h0.972c1.361,4.105-.474,10.521-0.972,13.388l-12.626,1.913v-0.956h-3.886v-0.957l-4.856-.956v-0.956h-1.943v-0.957l-5.827-.956v-0.956l-4.857-.956v-0.957h-1.943v-0.956h-2.913V674.9l-3.886-.957v-0.956l-5.827-.956v-0.957l-4.857-.956v-0.956h-1.942V668.2H749.7v-0.956h-1.943v-0.956H743.87v-0.957l-3.885-.956v-0.956h-2.914v-0.956l-3.885-.957v-0.956h-2.914V659.6l-3.886-.957v-0.956h-2.913v-0.956H721.53v-0.957l-5.828-.956V653.86H713.76V652.9l-5.828-.956v-0.956h-1.943v-0.956h-2.914v-0.957l-3.885-.956v-0.956h-1.942v-0.957h-2.914v-0.956h-1.943V644.3l-5.828-1.913v-0.956h-2.914v-0.957h-1.942v-0.956l-5.828-.956V637.6h-1.943v-0.956l-5.827-.956v-0.956h-1.943v-0.957h-2.914v-0.956H661.31v-0.956H658.4v-0.957h-1.943v-0.956L651.6,629v-0.957h-2.914v-0.956H646.74v-0.956h-4.856V625.17h-1.943v-0.956l-5.828-.956V622.3h-1.942v-0.957h-2.914v-0.956l-3.885-.956v-0.957l-5.828-.956v-0.956l-4.857-.957v-0.956h-1.942V613.7h-2.914v-0.957l-3.885-.956v-0.956l-5.828-.956v-0.957h-1.943v-0.956L593.319,607v-0.957l-6.8-.956v-0.956h-1.943q-0.486-.957-0.971-1.913h-1.943v-0.956h-2.914l-8.741-5.738v-1.913l-1.943-.956v-1.913l-1.943-.956c-2.1-3.392-3.051-12.315,0-15.3,3.244-3.563,5.071-2.1,9.713-3.825V569.7h3.886v-0.956h3.885v-0.956h2.914v-0.956h4.856v-0.957h4.857v-0.956h1.942v-0.956h2.914V563.01H604v-0.956h1.943V561.1l6.8-.957v-0.956h2.914v-0.956h3.885v-0.957h3.885v-0.956h4.856c10.309-3.3,21.966-6.158,32.053-9.563l12.627-1.913v-0.956l7.771-.956v-0.956h1.942v-0.957h4.857v-0.956h2.913V539.1h2.914v-0.957h2.914V537.19H702.1v-0.956h1.943v-0.957h2.914v-0.956h5.827v-0.956h1.943v-0.957l7.77-.956c3.246-1.079,13.393-4.97,19.426-2.869v0.956h1.943V530.5h3.885l0.971,1.912h1.943v0.957Zm0.971,6.694c-3.277-.936-1.858-1.159-3.885-2.869V537.19h-1.943v-1.913h-2.914v-1.912c-4.2-.326-9.275-3.21-13.6-1.913v0.956h-3.885v0.957h-2.914v0.956l-10.684,1.913v0.956H708.9v0.956h-1.942V539.1l-8.742.956v0.956h-1.943v0.957l-6.8.956v0.956h-3.885v0.956h-2.914V545.8l-16.512,2.869-35.938,10.519h-4.856v0.956h-3.886V561.1H617.6v0.956h-2.914v0.956l-6.8.957v0.956h-1.942v0.956h-2.914v0.957h-2.914v0.956h-1.943v0.956h-4.856V569.7h-3.885v0.957h-3.886v0.956h-2.914v0.956h-3.885c-3.164,1.074-7.959,2.137-9.713,4.782h-0.971q-0.486,2.868-.971,5.738h0.971q0.486,2.391.971,4.781h0.972q0.485,1.436.971,2.869l1.942,0.957,0.972,2.869h1.942l0.972,1.912,3.885,0.956v0.957l4.856,0.956,0.972,1.913h1.942v0.956l7.771,0.956v0.957h1.942v0.956h2.914v0.956h1.943V607h2.914v0.956h1.942v0.956l4.857,0.957v0.956h2.914v0.956H617.6v0.956h2.914V613.7h1.943v0.956h2.914v0.956l4.856,0.957v0.956h1.943v0.956h2.914v0.957l3.885,0.956v0.956h3.885V622.3H644.8v0.956h3.885v0.956h1.942v0.956h2.914v0.957h1.943v0.956H658.4v0.956L663.252,629v0.956H665.2v0.956h2.914v0.957h1.942v0.956l5.828,0.956v0.957h1.943v0.956l5.827,0.956V637.6h1.943v0.957h2.914v0.956l5.828,1.913v0.956h1.942v0.956h2.914V644.3h1.943v0.956h1.942v0.956h1.943v0.957l23.311,7.65v0.956l3.885,0.957v0.956h2.914v0.956l3.885,0.957v0.956h2.914v0.956l3.885,0.957v0.956h4.857v0.956h1.943v0.956h2.913v0.957h1.943v0.956h2.914V668.2l4.856,0.957v0.956h1.943v0.956H770.1v0.957l4.856,0.956v0.956h1.943V674.9h2.914v0.956l3.885,0.956v0.957h3.885v0.956l3.885,0.956v0.956h2.914v0.957c3.775,1.193,9.166-.478,10.685-1.913h0.971v-7.65h-0.971l-0.972-4.782h-0.971v-2.869h-0.971V661.51h-0.972v-2.869h-0.971v-1.912h-0.971V653.86h-0.971v-1.913h-0.972q-0.971-4.3-1.942-8.607h-0.972q-0.485-2.39-.971-4.781h-0.971v-1.913h-0.972v-2.869h-0.971q-0.486-1.913-.971-3.825H788.55l-0.972-4.782h-0.971v-3.825h-0.971l-0.972-3.825h-0.971v-2.869h-0.971v-1.913H781.75V609.87h-0.971v-1.913h-0.971v-3.825h-0.971l-0.972-3.826h-0.971q-0.486-2.39-.971-4.781h-0.972V591.7H773.98q-0.486-1.913-.971-3.826h-0.972q-0.485-2.39-.971-4.781H770.1q-0.972-4.3-1.943-8.607h-0.971q-0.486-1.913-.971-3.825h-0.972v-3.825h-0.971q-0.486-1.912-.971-3.826h-0.971v-3.825h-0.972v-1.913h-0.971q-0.486-2.39-.971-4.781h-0.972v-1.913h-0.971v-2.869H756.5V544.84h-0.972C754.688,543.479,754.861,543.19,754.554,541.015Zm-583.75.957v2.868h-1.942c-0.7,2.642-.271,2.14-2.914,2.869v3.826h-1.943c-0.7,2.641-.271,2.139-2.914,2.869v3.825h-1.942c-0.7,2.641-.271,2.139-2.914,2.869v3.825h-1.943c-0.7,2.642-.271,2.139-2.914,2.869v3.825h-1.942c-0.7,2.642-.271,2.139-2.914,2.869v3.825l-2.914.957c-1.127,4.1-3.5,3.272-3.885,8.606H137.78c-0.7,2.642-.271,2.14-2.914,2.869q-0.484,1.435-.971,2.869h-0.971v1.913h-0.972v1.912l-1.942.957v6.694c3.667,3.2,2.072,5.051,3.885,9.563h0.971v2.869h0.972v2.869h0.971v2.869h0.971v2.869h0.971V629h0.972v1.912h0.971q0.486,2.87.971,5.738h0.972v1.913h0.971q0.486,2.868.971,5.738h0.972q0.485,2.389.971,4.781h0.971v1.913h0.971v2.869h0.972q0.484,1.913.971,3.825h0.971v2.869h0.972v1.913h0.971q0.486,1.913.971,3.825h0.972v2.869h0.971q0.486,1.913.971,3.825h0.971q0.972,2.868,1.943,5.738h0.971l0.972,3.825h0.971v1.913h0.971v1.912h0.972v1.913h0.971V690.2h0.971q0.486,1.911.971,3.825c1.552,2.861,3.331,4.359,3.886,8.607h1.942c0.608,2.94,1.551,3.311,1.943,6.694H177.6q0.972,3.346,1.943,6.694h1.943q0.484,2.391.971,4.781H184.4c0.99,4.07,3.841,6.145,4.857,10.52H191.2v2.869h1.942v2.869h1.943v2.869h1.942q0.972,2.868,1.943,5.738h1.943v2.868l2.913,0.957v2.869h1.943v2.869l2.914,0.956v2.869c4.687,1.253,1.04,1.058,2.914,3.825h0.971c2.08,2.258,2.407.549,2.914,4.782l2.914,0.956v2.869H295.13V770.53q-2.427-1.436-4.856-2.869v-2.869c-1.85-2.75-4.09.577-4.857-5.738-2.448-.591-1.59-0.521-2.913-1.913h-0.972v-1.912c-1.916-2.6-3.35-.91-3.885-5.738l-2.914-.957v-2.868l-2.914-.957V741.84l-2.914-.956v-2.869c-3.931-.985-1.227-0.423-2.914-2.869H265.02c-0.89-1.259-.765-1.692-0.971-3.825-4.567-1.469-6.237-7.779-8.742-11.476l-1.942-.956v-1.913l-1.943-.956v-1.913l-1.943-.956v-2.869l-2.913-1.913-0.972-2.869h-0.971v-2.868l-2.914-1.913V697.85l-2.914-1.913v-2.869l-2.914-1.912v-1.913H234.91v-1.912h-0.971v-1.913h-0.972v-1.913l-1.942-.956V679.68l-1.943-.956v-1.913h-0.971q-0.486-1.913-.971-3.825h-0.972v-2.869H225.2q-0.486-1.912-.971-3.825h-0.972q-0.484-1.913-.971-3.825l-1.943-.957q-0.484-1.912-.971-3.825l-1.942-.956v-1.913h-0.972V652.9h-0.971v-1.912h-0.971v-1.913h-0.972v-1.912H212.57v-1.913H211.6V643.34h-0.972v-1.912h-0.971v-1.913h-0.971V637.6h-0.971q-0.972-2.868-1.943-5.737H204.8V629h-0.972q-0.484-1.913-.971-3.826h-0.971V622.3h-0.971v-1.913h-0.972V617.52h-0.971q-0.486-1.912-.971-3.825h-0.972v-2.869h-0.971v-1.913h-0.971v-2.869h-0.972q-0.485-1.913-.971-3.825h-0.971V599.35H191.2v-2.869H190.23v-2.869h-0.971v-2.869h-0.971v-2.869h-0.972v-2.869h-0.971v-2.868h-0.971v-2.869H184.4V576.4h-0.971V573.53H182.46v-2.869h-0.971l-0.972-5.738h-0.971q-0.486-2.868-.971-5.738H177.6q-0.485-4.3-.971-8.607h-0.971v-2.869h-0.972V545.8h-0.971v-4.782h-0.971C171.64,542.1,172.743,541.4,170.8,541.972Zm292.361,2.868c1.026,5.271,4.838,9.111,6.8,13.389V561.1h0.971q0.972,2.868,1.943,5.738h0.971v1.912h0.971v2.869l1.943,0.956v2.869h0.971v1.913h0.972q0.484,1.912.971,3.825h0.971v2.869h0.972v1.913h0.971v1.912h0.971v1.913h0.971l0.972,5.738h0.971q0.486,1.913.971,3.825h0.972v1.913h0.971v2.869h0.971v1.912h0.971l0.972,5.738h0.971V613.7h0.971l0.972,4.781h0.971q0.486,3.346.971,6.694h0.972q0.484,1.913.971,3.826h0.971v5.738h0.971a24.141,24.141,0,0,1,1.943,7.65H505.9v0.956h11.656q0.485,0.957.971,1.913l5.828-.956c-0.625-3.857-2.7-7.388-3.886-10.52v-3.825H519.5q-0.486-1.912-.971-3.825h-0.971l-0.972-5.738h-0.971q-0.486-2.87-.971-5.738h-0.972v-1.913H512.7q-0.971-4.3-1.943-8.606h-0.971q-0.486-1.913-.971-3.826h-0.971v-2.869h-0.972v-1.912H505.9q-0.486-2.87-.971-5.738l-1.943-.956q-0.486-2.87-.971-5.738l-1.943-.956v-2.869H499.1q-0.486-2.391-.971-4.782H497.16q-0.485-1.913-.971-3.825h-0.971v-2.869l-1.943-.956v-2.869H492.3v-1.913h-0.972v-2.869l-2.913-1.913V555.36h-0.972q-0.484-1.913-.971-3.825h-0.971c-1.72-3.787-.584-6.516-3.885-8.607v-0.956h-0.972v0.956ZM118.354,610.826V613.7c-2.914,1.887-.914,2.7-4.856,3.825v2.869c-2.915,1.887-.915,2.7-4.857,3.825v2.869c-2.914,1.887-.914,2.7-4.856,3.825v2.869c-2.915,1.887-.915,2.7-4.857,3.825v2.869c-2.915,1.887-.914,2.7-4.856,3.826v2.869l-2.914,1.912c-0.78,1.078-.772,4.074-1.943,4.782H87.273v2.869c-2.915,1.887-.914,2.7-4.856,3.825-0.609,3.89-.74,2.2-1.943,4.781H79.5c-0.416,1.412,1.673,1.315,1.943,1.913l0.971,5.738h0.971V674.9h0.971v2.869H85.33v1.912H86.3v2.869h0.971v2.869h0.971l0.971,3.825h0.971v2.869h0.971l0.971,3.825H93.1v3.826h0.971l1.943,5.737h0.971v1.913h0.971v1.913h0.971v1.912H99.9v1.913h0.971v1.913h0.971v1.912h0.971v1.913h0.972q0.485,1.913.971,3.825h0.971v1.913H106.7v1.912h0.971v1.913h0.971v1.913h0.972q0.485,1.912.971,3.825c1.343,2.478,3.109,4.3,3.885,7.65h1.943l1.942,6.694H120.3q0.486,2.391.971,4.782h1.943q0.485,2.391.971,4.782h1.943v2.868h1.942v2.869h1.943v1.913h0.971v1.913l1.943,0.956v0.956H212.57V766.7c-3.125-.7-3.537-1.3-3.885-4.781l-2.914-.957V758.1c-3.931-.985-1.227-0.424-2.914-2.869h-0.971c-0.89-1.26-.765-1.693-0.971-3.826-3.92-1.253-1.056-.327-2.914-2.869l-1.943-.956v-1.912l-1.943-.957V742.8l-1.942-.957v-1.912l-1.943-.957v-1.912l-1.942-.957V734.19l-1.943-.957v-1.912l-1.943-.956V727.5l-1.942-.957v-1.912l-2.914-1.913q-0.486-1.913-.971-3.825l-1.943-.956V716.02h-0.971v-2.869l-2.914-1.913v-2.869h-0.971L170.8,705.5l-1.942-.956-0.972-3.825h-0.971v-1.913h-0.971v-1.912h-0.971v-1.913h-0.972v-1.913h-0.971V690.2l-1.943-.957v-2.869l-1.942-.956-0.972-3.825h-0.971q-0.486-1.913-.971-3.825h-0.971V674.9l-1.943-.957q-1.457-4.781-2.914-9.563l-1.943-.956q-0.485-2.87-.971-5.738l-1.942-.956V653.86h-0.972v-1.913h-0.971q-0.486-2.391-.971-4.781h-0.972V643.34h-0.971q-0.486-1.913-.971-3.825h-0.972V635.69H137.78q-0.486-1.913-.971-3.825h-0.971v-3.826h-0.972v-1.912H133.9v-2.869h-0.971v-2.869h-0.972V617.52h-0.971v-2.869H130.01v-3.825h-0.972q-0.485-1.912-.971-3.825H127.1v-5.738h-0.971v0.956C123.085,604.822,122.635,609.613,118.354,610.826Zm424.457,89.893a87.588,87.588,0,0,0,13.6.956h7.771v0.957h1.942v0.956l54.393,3.825,27.2,2.869v-0.956c1.734-.607,2.53-0.429,3.886-0.957,0.571-.993,1.706-1.529,1.942-1.912v-1.913h0.971v-2.869h0.972l-2.914-8.607V690.2H651.6v-3.826h-0.972v-2.869h-0.971v-2.869h-0.971q-0.972-4.781-1.943-9.563h-0.971v-5.738H644.8v-1.912h-0.972V661.51h-0.971q-0.486-1.434-.971-2.869l-9.713-.956v-0.956H620.515v-0.957H609.831v-0.956H598.175V653.86H587.491V652.9H575.835v-0.956H564.18v-0.956l-34.967-1.913-29.139-.956v-0.956l-12.627-.957v0.957l-5.827,1.912a18.073,18.073,0,0,0-.972,6.694c3.489,2.559.479,1.964,1.943,5.738h0.971v1.913h0.971v5.738h0.972q0.484,3.825.971,7.65h0.971v2.869h0.972v2.869h0.971v2.869h0.971V690.2h0.971v1.912l1.943,0.956q0.486,1.436.971,2.869c10.521,0.787,21.194,1.913,33.024,1.913,4.1,0,12.237-1.081,14.57.956C542.946,699.9,542.227,698.81,542.811,700.719ZM77.56,672.03L76.588,674.9H73.675c-0.308,3.388-1.276,3.776-1.943,6.694H69.789v1.912H67.847v3.826H65.9c-0.7,2.641-.271,2.139-2.914,2.869v3.825H61.048c-0.7,2.641-.271,2.139-2.914,2.869v3.825H56.191c-0.7,2.642-.271,2.139-2.914,2.869v3.825H51.335c-0.7,2.642-.271,2.139-2.914,2.869v3.825H46.478c-0.7,2.642-.271,2.14-2.914,2.869-1.256,5.892-5.363,6.569-5.828,13.389l-2.914.956-0.971,7.65H32.88l0.971,4.782h1.943c-0.077,3.133-.01,5.555.971,7.65h0.971l0.971,5.738h0.971c1.107,1.089,0,.381,1.943.957q0.486,1.911.971,3.825l8.742,4.781,0.971,1.913H55.22v0.956h1.943v0.957h2.914v0.956h68.962V770.53c-1.9-1.7-.807-2.1-1.942-3.826l-1.943-.956v-1.913l-1.942-.956v-1.913l-1.943-.956q-0.486-1.912-.971-3.825l-1.943-.956V752.36l-2.914-1.913q-0.484-2.391-.971-4.781l-2.914-1.913-6.8-15.3h-0.971l-0.972-3.825h-0.971q-0.486-1.912-.971-3.826H99.9v-1.912H98.928v-1.913H97.957v-1.912H96.986v-1.913H96.014v-1.913H95.043L93.1,705.5H92.129l-0.971-3.825H90.187l-0.971-5.738-1.943-.956v-2.869H86.3V690.2H85.33v-2.869c-2.112-4.7-5.347-8.835-5.828-15.3H77.56Z"/>
</svg>
