<svg xmlns="http://www.w3.org/2000/svg" width="100" height="100" viewBox="0 0 100 100">
  <defs>
    <style>
      .cls-1 {
        fill-rule: evenodd;
      }
    </style>
  </defs>
  <path id="pp_1" data-name="pp 1" class="cls-1" d="M35.3,35.316l-0.95-4.737H35.3V26.79l-1.9-.947V21.105a9.387,9.387,0,0,0,1.9-1.895l4.75-.947L41,15.421c1.421-1.8,3.657-2.5,6.65-2.842a5.835,5.835,0,0,0,2.85,2.842V14.474L55.25,5H61.9V5.947h0.95l-3.8,10.421H58.1v1.895H57.15v1.895H56.2v4.737l-3.8,2.842c-1.746,3.464,2.169,3.4-1.9,6.632v0.947H45.75V34.368L41,35.316v0.947ZM57.15,7.842c-1.46,3.328-3.317,6.145-3.8,10.421H54.3V17.316c2.272-1.993,3.477-6.611,4.75-9.474h-1.9Zm-7.6,24.632c-0.076-8.765,2.274-6.008,3.8-11.368H48.6l-1.9-5.684-3.8,2.842-0.95,2.842H39.1v0.947L36.25,23c0.56,2.268.929,2.154,1.9,3.79H39.1l-1.9,5.684h0.95v0.947C39.3,33.83,42.1,31.935,42.9,31.526V30.579l3.8,0.947v0.947h2.85Zm32.3-4.737c-0.336,6.441-4.267,6.295-5.7,11.369,3.135,1.759,4.721,4.468,4.75,9.474H79.95v2.842H79l-0.95,3.789H77.1l-2.85,8.526h1.9V62.79h3.8V61.842l10.45-.947c4.006,7.143,7.534,12.233,7.6,23.684l-4.75.947V84.579H90.4V83.632L80.9,80.79v5.684c-4.047,2.127-5.955,1.977-12.35,1.895V87.421h-3.8v4.737A18.616,18.616,0,0,0,61.9,95H4.9C3.145,91.69,2.932,90.14,3,84.579H3.95L4.9,81.737H5.85C7.933,78.578,7.223,77.161,12.5,77c0.251-1.6.95-1.895,0.95-1.895V69.421H14.4l4.75-7.579h3.8l0.95-1.895h0.95V58.053H25.8l-0.95-4.737,1.9-.947V50.474l1.9-.947V47.632l2.85-1.895,0.95-2.842h1.9V41.947l1.9,0.947c6.644-2.226,7.117,2.13,11.4,4.737l0.95-3.789h0.95c1.624-3.6-.756-4.452,3.8-5.684,2.322-2.042,7.179-.722,9.5,0V37.211c1.542-1.311,2.389-3.294,3.8-4.737l2.85-1.895V28.684l2.85-1.895V25.842H77.1V26.79Zm-7.6.947C72.221,32.058,60.124,43.209,61.9,45.737c1.082,1.079,0,.377,1.9.947L68.55,41H69.5l0.95-2.842,2.85-.947V35.316L79,30.579V29.632ZM60,40.053H54.3C51.481,45.51,48.1,51.244,47.65,59l5.7,6.632,17.1-1.895a8.781,8.781,0,0,1,1.9-1.895l0.95-4.737h0.95V54.263H75.2a26.624,26.624,0,0,0,2.85-9.474c-2.209-1.278-2.907-3.224-4.75-4.737V41c-3.99,2.64-5.138,8.054-10.45,9.474V49.526l-5.7-.947V47.632H56.2V44.79A6.4,6.4,0,0,0,60,40.053ZM38.15,44.79c-0.113,9.046,3.517,15.954,6.65,21.789v1.895h0.95v1.895H46.7l1.9,5.684L50.5,77v1.895l2.85,1.895,0.95,2.842h0.95V81.737H54.3V76.053c1.1-.55,1.5-1.661,1.9-1.895h2.85V73.211c-1.508-1.282-1.65-2.055-1.9-4.737h-5.7L44.8,60.895l0.95-10.421C42.756,48.716,41.931,45.808,38.15,44.79ZM5.85,92.158c11.319,2.136,26.98.948,39.9,0.947,4.015,0,11.958,1.067,14.25-.947-2.358-.629-6.385-3.075-7.6-4.737V85.526l-2.85-1.895V81.737L46.7,79.842l-0.95-3.79-1.9-.947-0.95-3.79H41.95l-1.9-5.684H39.1l-0.95-5.684H37.2V57.105H36.25V54.263H35.3V45.737H34.35c-1.279,2.485-4.315,7.152-6.65,8.526v0.947h0.95V59H29.6v4.737h0.95l1.9,8.526H33.4l1.9,5.684h0.95v1.895l1.9,0.947v1.895L41,84.579l0.95,2.842H42.9l3.8,4.737H35.3l-1.9-2.842H32.45V87.421l-1.9-.947L29.6,82.684l-1.9-.947V79.842H26.75l-0.95-3.79H24.85V73.211H23.9V71.316H22.95L22,64.684H21.05c-0.8,1.075.12,0.138-.95,0.947-1.288,2.759-2.98,3.6-3.8,6.632h0.95c0.747,1.119,1.084,6.009,1.9,7.579l7.6,12.316H16.3c-2.079-3.915-4.646-7.153-5.7-12.316-1.082,1.079-.378,0-0.95,1.895-2.364,1.439-.591,1.026-1.9,2.842H6.8c-1.44,1.794-1.754,2.345-1.9,5.684C5.982,91.343,5.278,90.267,5.85,92.158ZM25.8,61.842a32.713,32.713,0,0,0-.95,6.632H25.8l0.95,4.737H27.7v2.842h0.95v1.895c0.7,1.3,7.85,11.98,8.55,12.316H41V89.316c-1.243-1.056-1.751-2.6-2.85-3.789l-1.9-.947V82.684l-1.9-.947L33.4,77.947H32.45V76.053H31.5V74.158H30.55V72.263H29.6C27.926,68.484,28.72,64.4,25.8,61.842Zm57.95,1.895-17.1,5.684,0.95,1.895,14.25,6.632H84.7v0.947h1.9v0.947h2.85V80.79l5.7,1.895V81.737c1.082-1.079.378,0,.95-1.895H95.15L94.2,75.105H93.25V72.263H92.3V69.421H91.35l-1.9-5.684h-5.7ZM60,67.526c0.595,2.913,1.517,3.28,1.9,6.632h3.8V73.211c-1.484-1.384-3-3.607-.95-5.684H60Zm18.05,18a27.754,27.754,0,0,0-.95-6.632c-2.73-1.022-7.306-.989-11.4-0.947V77l-5.7.947c-0.4-.31-0.3-1.743-1.9-0.947v0.947H57.15l0.95,4.737h0.95C61.595,85,72.788,85.573,78.05,85.526ZM14.4,77.947c-0.545,1.9.114,0.82-.95,1.895,0.375,2.527,3.078,9.612,4.75,10.421H22V89.316c-1.771-1.532-5.093-8.544-5.7-11.368H14.4Zm47.5,8.526H58.1v0.947l2.85,1.895v0.947H61.9v-3.79Z"/>
</svg>
